<svg width="32" height="12" viewBox="0 0 32 12" fill="none" xmlns="http://www.w3.org/2000/svg">
<path d="M28.793 11.1703L28.2922 10.8817L28.5577 9.89597L28.2482 9.61427L27.8618 11.0479L29.0302 11.7209L29.3858 10.401L29.0825 10.095L28.793 11.1703Z" fill="white"/>
<path d="M29.2035 9.64689L28.3688 9.16611L28.2722 9.52452L29.4406 10.1975L29.8028 8.85336L29.493 8.57166L29.2035 9.64689Z" fill="white"/>
<path d="M28.6827 8.00113L29.8511 8.67415L30.2376 7.24052L29.0691 6.5675L28.6827 8.00113ZM29.3063 7.11784L29.8068 7.40637L29.6136 8.12319L29.1131 7.83466L29.3063 7.11784Z" fill="white"/>
<path d="M29.7894 5.3258L29.4796 5.04411L29.1174 6.38829L29.4269 6.66999L29.5718 6.13238L30.4065 6.61315L30.5031 6.25474L29.6685 5.77397L29.7894 5.3258Z" fill="white"/>
<path d="M29.7934 3.87913L30.2108 4.11983L30.0175 4.83664L29.6002 4.59626L29.5036 4.95466L30.672 5.62738L30.7686 5.26897L30.3513 5.02858L30.5445 4.31177L30.9619 4.55215L31.0585 4.19375L29.8901 3.52072L29.7934 3.87913Z" fill="white"/>
<path d="M29.914 3.43127L31.0825 4.10399L31.1791 3.74558L30.0107 3.07286L29.914 3.43127Z" fill="white"/>
<path d="M30.3245 1.90788L30.9924 2.29207L30.1316 2.6247L30.035 2.98311L31.2034 3.65613L31.2997 3.29772L30.6321 2.91354L31.4929 2.58091L31.5895 2.22219L30.4211 1.54948L30.3245 1.90788Z" fill="white"/>
<path d="M31.2489 0.266477L31.0557 0.983292L31.3655 1.26499L31.4861 0.817133L31.5696 0.865272L31.3764 1.58209L30.8758 1.29356L31.1414 0.307784L30.8316 0.0260887L30.4454 1.45972L31.6138 2.13274L32 0.699113L31.2489 0.266477Z" fill="white"/>
<path d="M17.1095 0L14.1596 10.9749H11.0131L13.1212 3.1356H10.7613L8.65324 10.9749H5.50672L7.61479 3.1356H5.2549L3.14683 10.9749H0L2.94986 0H17.1095ZM30.4825 0L27.5327 10.9749H14.9463L17.8961 0H30.4825ZM26.4942 3.1356H20.2012L18.9346 7.83901H25.2276L25.4402 7.05511H19.9338L21.5622 3.9195H26.282L26.4945 3.1356H26.4942Z" fill="white"/>
</svg>
