<svg width="428" height="91" viewBox="0 0 428 91" fill="currentColor" xmlns="http://www.w3.org/2000/svg">
<path d="M0.530182 25.01L66.9502 90.95L134.14 25.59L102.22 10.5601L75.8602 14.49L55.2101 13.52L46.1202 11.99L34.8702 9.53003L0.530182 25.01Z" fill="white"/>
<path d="M37.9842 8.13322L0.285522 24.252L0.890925 25.6679L38.5896 9.54914L37.9842 8.13322Z" fill="#353435"/>
<path d="M38.3607 21.1042L15.782 39.9027L16.7673 41.0861L39.346 22.2876L38.3607 21.1042Z" fill="#353435"/>
<path d="M103.242 10.5761L102.58 11.9662L133.396 26.6585L134.059 25.2684L103.242 10.5761Z" fill="#353435"/>
<path d="M97.8689 21.1825L96.8934 22.3743L118.979 40.4509L119.954 39.2592L97.8689 21.1825Z" fill="#353435"/>
<path d="M93.0502 2.16003H41.6302V14.3199H93.0502V2.16003Z" fill="#59595C"/>
<path d="M93.4402 14.71H41.2402V1.77002H93.4402V14.71ZM42.0102 13.9399H92.6602V2.55005H42.0102V13.9399Z" fill="#353435"/>
<path d="M45.9302 29.89L58.7802 67.6H69.9702H75.7602L87.3302 29.77L61.9102 29.84L45.9302 29.89Z" fill="#59595C"/>
<path d="M107.41 37.4301V12.0699L92.8601 2.16003L87.3302 30.99C87.3302 30.99 86.9401 26.7501 107.41 37.4301Z" fill="#59595C"/>
<path d="M107.79 38.0699L107.22 37.77C95.7802 31.8 90.9602 30.55 88.9402 30.55C88.1902 30.55 87.8302 30.73 87.7302 30.91L87.1802 33.78L86.9402 31.04C86.9402 31.04 86.9302 30.8599 86.9902 30.6899L92.5902 1.52002L107.79 11.88V38.08V38.0699ZM88.9402 29.78C91.9002 29.78 98.1502 32.21 107.01 36.8V12.28L93.1202 2.81006L87.9202 29.9C88.1802 29.82 88.5202 29.77 88.9402 29.77V29.78Z" fill="#353435"/>
<path d="M27.0802 37.4301V12.0699L41.6302 2.16003L47.1602 30.99C47.1602 30.99 47.5402 26.7501 27.0802 37.4301Z" fill="#59595C"/>
<path d="M26.7002 38.0699V11.87L41.9001 1.51001L47.5002 30.6801C47.5602 30.8501 47.5602 30.99 47.5502 31.03L47.3102 33.77L46.7602 30.9C46.6602 30.72 46.3002 30.54 45.5502 30.54C43.5202 30.54 38.7102 31.79 27.2602 37.76L26.7002 38.0601V38.0699ZM27.4702 12.28V36.8C36.3402 32.21 42.5902 29.78 45.5502 29.78C45.9702 29.78 46.3002 29.83 46.5602 29.91L41.3602 2.81995L27.4702 12.29V12.28Z" fill="#353435"/>
<path d="M58.8502 29.77L71.0901 67.6" stroke="#353435" stroke-width="0.98" stroke-miterlimit="10"/>
<path d="M73.9001 29.58L66.7902 54.3101" stroke="#353435" stroke-width="0.98" stroke-miterlimit="10"/>
<path d="M54.7202 37.61C53.7102 37.61 52.8902 36.79 52.8902 35.78C52.8902 34.77 53.7102 33.95 54.7202 33.95C55.7302 33.95 56.5502 34.77 56.5502 35.78C56.5502 36.79 55.7302 37.61 54.7202 37.61ZM54.7202 34.71C54.1302 34.71 53.6402 35.19 53.6402 35.79C53.6402 36.39 54.1302 36.87 54.7202 36.87C55.3102 36.87 55.8002 36.39 55.8002 35.79C55.8002 35.19 55.3202 34.71 54.7202 34.71Z" fill="white"/>
<path d="M57.6202 47.24C56.6102 47.24 55.7902 46.42 55.7902 45.41C55.7902 44.4 56.6102 43.58 57.6202 43.58C58.6302 43.58 59.4502 44.4 59.4502 45.41C59.4502 46.42 58.6302 47.24 57.6202 47.24ZM57.6202 44.34C57.0302 44.34 56.5402 44.82 56.5402 45.42C56.5402 46.02 57.0302 46.5 57.6202 46.5C58.2102 46.5 58.7002 46.02 58.7002 45.42C58.7002 44.82 58.2202 44.34 57.6202 44.34Z" fill="white"/>
<path d="M61.1402 56.86C60.1302 56.86 59.3102 56.04 59.3102 55.03C59.3102 54.02 60.1302 53.2 61.1402 53.2C62.1502 53.2 62.9702 54.02 62.9702 55.03C62.9702 56.04 62.1502 56.86 61.1402 56.86ZM61.1402 53.96C60.5502 53.96 60.0602 54.44 60.0602 55.04C60.0602 55.64 60.5502 56.12 61.1402 56.12C61.7302 56.12 62.2202 55.64 62.2202 55.04C62.2202 54.44 61.7402 53.96 61.1402 53.96Z" fill="white"/>
<path d="M77.0402 35.78C77.0402 34.77 77.8602 33.95 78.8702 33.95C79.8802 33.95 80.7002 34.77 80.7002 35.78C80.7002 36.79 79.8802 37.61 78.8702 37.61C77.8602 37.61 77.0402 36.79 77.0402 35.78ZM77.7902 35.78C77.7902 36.37 78.2702 36.86 78.8702 36.86C79.4702 36.86 79.9502 36.38 79.9502 35.78C79.9502 35.18 79.4602 34.7 78.8702 34.7C78.2802 34.7 77.7902 35.18 77.7902 35.78Z" fill="white"/>
<path d="M74.1302 45.41C74.1302 44.4 74.9501 43.58 75.9601 43.58C76.9701 43.58 77.7902 44.4 77.7902 45.41C77.7902 46.42 76.9701 47.24 75.9601 47.24C74.9501 47.24 74.1302 46.42 74.1302 45.41ZM74.8802 45.41C74.8802 46 75.3601 46.49 75.9601 46.49C76.5601 46.49 77.0402 46.01 77.0402 45.41C77.0402 44.82 76.5501 44.33 75.9601 44.33C75.3701 44.33 74.8802 44.81 74.8802 45.41Z" fill="white"/>
<path d="M70.6102 55.04C70.6102 54.03 71.4302 53.21 72.4402 53.21C73.4502 53.21 74.2701 54.03 74.2701 55.04C74.2701 56.05 73.4502 56.87 72.4402 56.87C71.4302 56.87 70.6102 56.05 70.6102 55.04ZM71.3602 55.04C71.3602 55.63 71.8402 56.12 72.4402 56.12C73.0402 56.12 73.5201 55.64 73.5201 55.04C73.5201 54.45 73.0302 53.96 72.4402 53.96C71.8502 53.96 71.3602 54.44 71.3602 55.04Z" fill="white"/>
<path d="M54.3602 35.78H79.4402" stroke="white" stroke-width="1.31" stroke-miterlimit="10"/>
<path d="M57.6202 45.41L72.4402 55.04" stroke="white" stroke-width="1.31" stroke-miterlimit="10"/>
<path d="M61.1402 55.04L75.6002 45.41" stroke="white" stroke-width="1.31" stroke-miterlimit="10"/>
<path d="M51.0302 64.27C53.8502 44.99 68.0102 36.8 68.0102 36.8L64.9702 34.33H68.0102L65.8802 36.86C65.8802 36.86 83.6301 47.21 85.8401 59.15" stroke="white" stroke-width="1.31" stroke-miterlimit="10"/>
<path d="M169.9 16.84C169.63 17.54 169.57 18.01 169.71 18.26C169.86 18.51 170.21 18.63 170.78 18.63H180.22L176.77 24.08H163.48C162.17 24.08 161.32 23.8 160.93 23.23C160.54 22.67 160.58 21.7801 161.05 20.5601L167.51 3.68005C167.98 2.46005 168.63 1.57001 169.46 1.01001C170.28 0.45001 171.35 0.160034 172.66 0.160034H183.58C184.89 0.160034 185.73 0.44001 186.1 1.01001C186.47 1.58001 186.42 2.46005 185.95 3.68005L184.12 8.52002H176.68L177.12 7.37C177.37 6.67 177.42 6.19997 177.29 5.96997C177.16 5.72997 176.8 5.60999 176.24 5.60999H175.8C175.24 5.60999 174.79 5.72998 174.45 5.97998C174.11 6.22998 173.81 6.70002 173.54 7.40002L169.92 16.84H169.9Z" fill="white"/>
<path d="M183.93 24.08C182.62 24.08 181.77 23.8 181.38 23.23C180.99 22.67 181.03 21.7801 181.5 20.5601L187.96 3.68005C188.43 2.46005 189.08 1.57001 189.91 1.01001C190.73 0.45001 191.8 0.160034 193.11 0.160034H204.61C205.92 0.160034 206.76 0.44001 207.13 1.01001C207.5 1.58001 207.45 2.46005 206.98 3.68005L200.52 20.5601C200.05 21.7801 199.41 22.67 198.61 23.23C197.81 23.79 196.76 24.08 195.45 24.08H183.95H183.93ZM190.36 16.84C190.09 17.54 190.03 18.01 190.17 18.26C190.32 18.51 190.67 18.63 191.24 18.63H192.25C192.81 18.63 193.26 18.51 193.59 18.26C193.92 18.01 194.22 17.54 194.49 16.84L198.11 7.40002C198.38 6.70002 198.45 6.22998 198.31 5.97998C198.17 5.72998 197.82 5.60999 197.26 5.60999H196.25C195.69 5.60999 195.24 5.72998 194.9 5.97998C194.56 6.22998 194.26 6.70002 193.99 7.40002L190.37 16.84H190.36Z" fill="white"/>
<path d="M210.72 18.63H218.77L215.29 24.08H201.19L210.36 0.170044H217.8L210.73 18.64L210.72 18.63Z" fill="white"/>
<path d="M227.74 18.63H235.79L232.31 24.08H218.21L227.38 0.170044H234.82L227.75 18.64L227.74 18.63Z" fill="white"/>
<path d="M259.84 0.160034L257.2 24.0699H249.89L251.89 7.87L245.29 18.63H249.35L245.83 24.08H234.7L249.45 0.170044H259.83L259.84 0.160034Z" fill="white"/>
<path d="M267.75 0.160034H282.97C284.28 0.160034 285.12 0.44001 285.49 1.01001C285.86 1.58001 285.81 2.46005 285.34 3.68005L281.96 12.54C281.51 13.71 280.89 14.5901 280.1 15.1801C279.31 15.7701 278.26 16.0601 276.95 16.0601L277.86 24.08H270.39L269.21 16L266.1 24.08H258.66L265.76 5.60999H264.3L267.75 0.160034ZM273.2 5.60999L271.27 10.62H273.71C274.27 10.62 274.72 10.5 275.05 10.25C275.38 10 275.68 9.52996 275.95 8.82996L276.49 7.41003C276.76 6.71003 276.83 6.23999 276.69 5.98999C276.56 5.73999 276.2 5.62 275.64 5.62H273.21L273.2 5.60999Z" fill="white"/>
<path d="M292.92 24.08L300.02 5.60999H298.56L302.01 0.160034H317.23C318.54 0.160034 319.38 0.44001 319.75 1.01001C320.12 1.58001 320.07 2.46005 319.6 3.68005L317.37 9.5C317.3 9.7 317.16 9.92994 316.95 10.1899C316.74 10.4499 316.5 10.71 316.24 10.97C315.98 11.23 315.72 11.4701 315.45 11.6801C315.18 11.8901 314.95 12.07 314.77 12.2C314.84 12.31 314.92 12.48 315.02 12.71C315.12 12.94 315.21 13.17 315.27 13.42C315.34 13.67 315.38 13.9201 315.4 14.1801C315.42 14.4401 315.39 14.67 315.3 14.87L313.14 20.55C312.67 21.77 312.03 22.66 311.23 23.22C310.43 23.78 309.37 24.0699 308.07 24.0699H292.92V24.08ZM302.46 18.63H304.9C305.46 18.63 305.91 18.51 306.24 18.26C306.57 18.01 306.87 17.54 307.14 16.84L307.21 16.64C307.48 15.94 307.55 15.47 307.41 15.22C307.28 14.97 306.93 14.85 306.36 14.85H303.92L302.46 18.64V18.63ZM309.75 9.08997C310.08 8.83997 310.37 8.37004 310.65 7.67004L310.75 7.40002C311.02 6.70002 311.09 6.22998 310.95 5.97998C310.82 5.72998 310.46 5.60999 309.9 5.60999H307.47L305.98 9.46997H308.41C308.97 9.46997 309.42 9.34998 309.75 9.09998V9.08997Z" fill="white"/>
<path d="M313.82 24.08L322.99 0.170044H340.04L336.52 5.62H328.37L326.88 9.47998H334.93L331.45 14.86H324.82L323.37 18.65H332.94L329.42 24.1H313.83L313.82 24.08Z" fill="white"/>
<path d="M342.44 0.160034H357.66C358.97 0.160034 359.81 0.44001 360.18 1.01001C360.55 1.58001 360.5 2.46005 360.03 3.68005L356.65 12.54C356.2 13.71 355.58 14.5901 354.79 15.1801C354 15.7701 352.95 16.0601 351.64 16.0601L352.55 24.08H345.08L343.9 16L340.79 24.08H333.35L340.45 5.60999H338.99L342.44 0.160034ZM347.89 5.60999L345.96 10.62H348.4C348.96 10.62 349.41 10.5 349.74 10.25C350.07 10 350.37 9.52996 350.64 8.82996L351.18 7.41003C351.45 6.71003 351.52 6.23999 351.38 5.98999C351.25 5.73999 350.89 5.62 350.33 5.62H347.9L347.89 5.60999Z" fill="white"/>
<path d="M381.44 0.160034L377.92 5.60999H373.83L366.73 24.08H359.29L366.39 5.60999H360.84L364.39 0.160034H381.44Z" fill="white"/>
<path d="M395.03 0.160034L392.39 24.0699H385.08L387.08 7.87L380.48 18.63H384.54L381.02 24.08H369.89L384.64 0.170044H395.02L395.03 0.160034Z" fill="white"/>
<path d="M403.46 18.63H411.51L408.03 24.08H393.93L403.1 0.170044H410.54L403.47 18.64L403.46 18.63Z" fill="white"/>
<path d="M418.37 24.08H410.93L420.1 0.170044H427.54L418.37 24.08Z" fill="white"/>
<path d="M176.53 64.67L177.58 56.86L172.64 64.67H164.59L168.34 40.76H175.71L173.95 51.52L180.34 40.76H187.04L185.15 51.52L191.61 40.76H199.05L184.51 64.67H176.53Z" fill="white"/>
<path d="M198.85 64.67H191.41L200.58 40.76H208.02L198.85 64.67Z" fill="white"/>
<path d="M228.07 40.75L224.55 46.2H220.46L213.36 64.67H205.92L213.02 46.2H207.47L211.02 40.75H228.07Z" fill="white"/>
<path d="M232 64.67L235.55 55.4399H231.42L227.87 64.67H220.43L229.6 40.76H237.04L233.49 50.0601H237.62L241.17 40.76H248.61L239.44 64.67H232Z" fill="white"/>
<path d="M261.32 64.67H253.88L263.05 40.76H270.49L261.32 64.67Z" fill="white"/>
<path d="M282.36 64.67H276.98L274.21 55.74L270.79 64.67H263.35L272.52 40.76H277.9L280.67 49.6899L284.09 40.76H291.53L282.36 64.67Z" fill="white"/>
<path d="M303.4 64.67H298.02L295.25 55.74L291.83 64.67H284.39L293.56 40.76H298.94L301.71 49.6899L305.13 40.76H312.57L303.4 64.67Z" fill="white"/>
<path d="M305.43 64.67L314.6 40.76H331.65L328.13 46.21H319.98L318.49 50.0699H326.54L323.06 55.45H316.43L314.98 59.24H324.55L321.03 64.6899H305.44L305.43 64.67Z" fill="white"/>
<path d="M334.05 40.75H349.27C350.58 40.75 351.42 41.03 351.79 41.6C352.16 42.17 352.11 43.05 351.64 44.27L348.26 53.13C347.81 54.3 347.19 55.18 346.4 55.77C345.61 56.36 344.56 56.65 343.25 56.65L344.16 64.67H336.69L335.51 56.59L332.4 64.67H324.96L332.06 46.2H330.6L334.05 40.75ZM339.5 46.2L337.57 51.21H340.01C340.57 51.21 341.02 51.09 341.35 50.84C341.68 50.59 341.98 50.12 342.25 49.42L342.79 48C343.06 47.3 343.13 46.83 342.99 46.58C342.86 46.33 342.5 46.21 341.94 46.21H339.51L339.5 46.2Z" fill="white"/>
</svg>
