<svg width="286" height="90" viewBox="0 0 286 90" fill="none" xmlns="http://www.w3.org/2000/svg">
<path d="M0.350159 24.03L66.7702 89.96L133.96 24.6099L102.04 9.57996L75.6802 13.5099L55.0202 12.5399L45.9402 11.0099L34.6902 8.54993L0.350159 24.03Z" fill="white"/>
<path d="M37.7875 7.18389L0.0888672 23.3026L0.694294 24.7186L38.3929 8.59986L37.7875 7.18389Z" fill="#353435"/>
<path d="M38.1711 20.1709L15.5923 38.9695L16.5777 40.153L39.1564 21.3544L38.1711 20.1709Z" fill="#353435"/>
<path d="M103.069 9.61088L102.407 11.001L133.224 25.6933L133.886 24.3032L103.069 9.61088Z" fill="#353435"/>
<path d="M97.6807 20.2156L96.7053 21.4073L118.791 39.484L119.766 38.2923L97.6807 20.2156Z" fill="#353435"/>
<path d="M69.1202 49.5799C65.4602 37.8299 58.8602 31.2599 50.7502 27.7899C46.7102 20.6499 44.9202 11.3799 44.9202 11.3799H40.9902L41.4402 25.7599L46.8602 28.7699C47.5902 32.4299 47.4902 36.4399 47.4902 36.4399C59.5002 40.6199 69.1102 49.5699 69.1102 49.5699L69.1202 49.5799Z" fill="white"/>
<path d="M69.5202 50.2199L68.9902 49.7199C68.8902 49.6299 59.2702 40.7499 47.4302 36.6299L47.2902 36.58V36.4399C47.2902 36.4399 47.3902 32.47 46.6902 28.9L41.2402 25.8799V25.77L40.7802 11.1899H45.0702L45.1002 11.3499C45.1202 11.4399 46.9202 20.62 50.8702 27.65C59.9002 31.54 65.9202 38.7 69.3002 49.53L69.5102 50.2299L69.5202 50.2199ZM47.6902 36.3199C57.9602 39.9299 66.5501 47.0699 68.7201 48.9699C65.3401 38.5999 59.4302 31.7299 50.6702 27.9799L50.6102 27.95L50.5802 27.89C46.8602 21.31 45.0202 12.83 44.7702 11.58H41.2002L41.6402 25.6599L47.0502 28.6599L47.0702 28.7499C47.7202 32.0099 47.7102 35.5799 47.7002 36.3199H47.6902Z" fill="#353435"/>
<path d="M64.6402 73.97H75.8402C76.0502 73.97 76.2302 73.75 76.2302 73.48L76.1402 40.3401L67.1402 47.8701L64.1702 56.86L64.2602 73.48C64.2602 73.75 64.4302 73.97 64.6502 73.97H64.6402Z" fill="#59595C"/>
<path d="M76.0302 74.21H64.4502C64.2402 74.21 64.0602 73.99 64.0602 73.72L63.9802 56.76L66.9702 47.7L67.0202 47.66L76.3202 39.88L76.4102 73.72C76.4102 73.99 76.2402 74.21 76.0202 74.21H76.0302ZM64.8302 73.72H75.6402C75.8502 73.72 76.0302 73.5 76.0302 73.23L75.9402 40.79L67.2902 48.03L64.3602 56.9L64.4502 73.23C64.4502 73.5 64.6202 73.72 64.8402 73.72H64.8302Z" fill="#59595C"/>
<path d="M88.9802 11.38C88.9802 11.38 85.0202 25.86 77.4002 32.04C69.7702 38.22 63.1102 47.39 63.3002 58.78C63.4702 68.83 63.4302 72.64 63.4002 74.56C63.4002 74.78 63.5702 74.95 63.7902 74.95H75.8502C76.0602 74.95 76.2402 74.78 76.2402 74.56V74.17C76.2402 73.96 76.0702 73.78 75.8502 73.78H64.6502C64.4402 73.78 64.2602 73.61 64.2602 73.39L64.1702 55.22C64.1702 55.22 63.2002 46.02 85.2202 38.01C85.2202 38.01 87.8302 37.91 91.1102 15.32L92.2702 9.53003L88.9902 11.37L88.9802 11.38Z" fill="white"/>
<path d="M76.4202 74.7599C76.4202 74.9699 76.2502 75.15 76.0302 75.15L63.0002 75.2C63.0002 75.1 63.2902 70.0499 63.1002 58.7899C62.8802 45.5499 71.8802 36.26 77.2702 31.9C84.7602 25.83 88.7502 11.48 88.7902 11.34L88.8102 11.2599L92.5302 9.17993L91.2902 15.3799C88.2002 36.6399 85.7002 38.1299 85.2602 38.2199C63.7002 46.0699 64.3502 55.1399 64.3602 55.2299L64.4602 73.2199C64.4602 73.4299 64.6302 73.6099 64.8502 73.6099H76.0502C76.2602 73.6099 76.4402 73.7799 76.4402 73.9999V74.77L76.4202 74.7599ZM63.9802 74.7599H75.6502C75.8602 74.7599 76.0402 74.5899 76.0402 74.3699C76.0402 74.1599 75.8702 73.9799 75.6502 73.9799H64.4502C64.2402 73.9799 64.0602 73.81 64.0602 73.59L63.9702 55.2299C63.9302 54.8699 63.2402 45.81 85.1402 37.84H85.2002C85.2802 37.8 87.7702 36.9199 90.9002 15.3099L91.9802 9.90991L89.1302 11.4999C88.8002 12.6599 84.8002 26.2699 77.5002 32.1799C72.1702 36.4999 63.2502 45.7 63.4802 58.77C63.6402 68.46 63.6202 72.0899 63.5802 74.3599C63.5802 74.5799 63.7502 74.7499 63.9702 74.7499L63.9802 74.7599Z" fill="#353435"/>
<path d="M63.0101 68.37C62.8001 68.37 62.6201 68.2 62.6201 67.98L62.5201 58.24C62.5201 51.77 64.5101 50.08 64.6701 49.85C64.6701 49.85 64.0701 52.26 64.0701 58.24L64.1701 67.97C64.1701 68.18 64.0001 68.36 63.7801 68.36H63.0101V68.37Z" fill="#353435"/>
<path d="M92.8702 1.18005H41.4502V13.3401H92.8702V1.18005Z" fill="#59595C"/>
<path d="M93.2602 13.73H41.0602V0.790039H93.2602V13.73ZM41.8302 12.9601H92.4802V1.57007H41.8302V12.9601Z" fill="#353435"/>
<path d="M107.22 36.4501V11.0901L92.6702 1.18005L87.1402 30.0101C87.1402 30.0101 86.7502 25.7701 107.22 36.4501Z" fill="#59595C"/>
<path d="M107.61 37.0901L107.04 36.79C95.6001 30.82 90.7801 29.5701 88.7601 29.5701C88.0101 29.5701 87.6501 29.7501 87.5501 29.9301L87.0001 32.8L86.7601 30.0601C86.7601 30.0601 86.7501 29.8801 86.8101 29.7101L92.4101 0.540039L107.61 10.9001V37.1V37.0901ZM88.7601 28.8C91.7201 28.8 97.9701 31.2301 106.83 35.8201V11.3L92.9401 1.83008L87.7401 28.92C88.0001 28.84 88.3401 28.79 88.7601 28.79V28.8Z" fill="#353435"/>
<path d="M26.9001 36.45V11.09L41.4501 1.17993L46.9801 30.0099C46.9801 30.0099 47.3601 25.77 26.9001 36.45Z" fill="#59595C"/>
<path d="M26.5101 37.09V10.89L41.7101 0.530029L47.3101 29.7C47.3701 29.87 47.3701 30.01 47.3601 30.05L47.1201 32.79L46.5701 29.92C46.4701 29.74 46.1101 29.56 45.3601 29.56C43.3301 29.56 38.5201 30.81 27.0701 36.78L26.5101 37.08V37.09ZM27.2801 11.3V35.82C36.1501 31.23 42.4001 28.8 45.3601 28.8C45.7801 28.8 46.1101 28.85 46.3701 28.93L41.1701 1.84003L27.2801 11.31V11.3Z" fill="#353435"/>
<path d="M70.2001 55.51C68.9201 55.51 67.8801 54.47 67.8801 53.19C67.8801 51.91 68.9201 50.87 70.2001 50.87C71.4801 50.87 72.5201 51.91 72.5201 53.19C72.5201 54.47 71.4801 55.51 70.2001 55.51ZM70.2001 52.03C69.5601 52.03 69.0401 52.55 69.0401 53.19C69.0401 53.83 69.5601 54.35 70.2001 54.35C70.8401 54.35 71.3601 53.83 71.3601 53.19C71.3601 52.55 70.8401 52.03 70.2001 52.03Z" fill="white"/>
<path d="M70.1902 63.33C68.9102 63.33 67.8702 62.2899 67.8702 61.0099C67.8702 59.7299 68.9102 58.6899 70.1902 58.6899C71.4702 58.6899 72.5102 59.7299 72.5102 61.0099C72.5102 62.2899 71.4702 63.33 70.1902 63.33ZM70.1902 59.8499C69.5502 59.8499 69.0302 60.3699 69.0302 61.0099C69.0302 61.6499 69.5502 62.1699 70.1902 62.1699C70.8302 62.1699 71.3502 61.6499 71.3502 61.0099C71.3502 60.3699 70.8302 59.8499 70.1902 59.8499Z" fill="white"/>
<path d="M70.1902 70.92C68.9102 70.92 67.8702 69.88 67.8702 68.6C67.8702 67.32 68.9102 66.28 70.1902 66.28C71.4702 66.28 72.5102 67.32 72.5102 68.6C72.5102 69.88 71.4702 70.92 70.1902 70.92ZM70.1902 67.44C69.5502 67.44 69.0302 67.96 69.0302 68.6C69.0302 69.24 69.5502 69.76 70.1902 69.76C70.8302 69.76 71.3502 69.24 71.3502 68.6C71.3502 67.96 70.8302 67.44 70.1902 67.44Z" fill="white"/>
<path d="M169.71 34.89C169.44 35.59 169.38 36.0599 169.52 36.3099C169.67 36.5599 170.02 36.6799 170.59 36.6799H180.03L176.58 42.1299H163.29C161.98 42.1299 161.13 41.85 160.74 41.28C160.34 40.72 160.38 39.8299 160.86 38.6099L167.32 21.7299C167.79 20.5099 168.44 19.6199 169.26 19.0599C170.08 18.4999 171.15 18.21 172.46 18.21H183.39C184.7 18.21 185.54 18.4899 185.91 19.0599C186.28 19.6299 186.23 20.5099 185.76 21.7299L183.93 26.5699H176.49L176.93 25.4199C177.18 24.7199 177.23 24.25 177.1 24.02C176.96 23.78 176.61 23.6599 176.05 23.6599H175.61C175.05 23.6599 174.6 23.78 174.26 24.03C173.92 24.28 173.62 24.75 173.35 25.45L169.73 34.89H169.71Z" fill="white"/>
<path d="M183.75 42.1299C182.44 42.1299 181.59 41.85 181.2 41.28C180.8 40.72 180.84 39.8299 181.32 38.6099L187.78 21.7299C188.25 20.5099 188.9 19.6199 189.72 19.0599C190.54 18.4999 191.61 18.21 192.92 18.21H204.42C205.73 18.21 206.57 18.4899 206.94 19.0599C207.31 19.6299 207.26 20.5099 206.79 21.7299L200.33 38.6099C199.86 39.8299 199.22 40.72 198.42 41.28C197.62 41.84 196.56 42.1299 195.26 42.1299H183.76H183.75ZM190.18 34.89C189.91 35.59 189.85 36.0599 189.99 36.3099C190.14 36.5599 190.49 36.6799 191.06 36.6799H192.07C192.63 36.6799 193.08 36.5599 193.41 36.3099C193.74 36.0599 194.04 35.59 194.31 34.89L197.93 25.45C198.2 24.75 198.27 24.28 198.13 24.03C197.99 23.78 197.64 23.6599 197.08 23.6599H196.07C195.51 23.6599 195.06 23.78 194.72 24.03C194.38 24.28 194.08 24.75 193.81 25.45L190.19 34.89H190.18Z" fill="white"/>
<path d="M210.54 36.69H218.59L215.11 42.14H201.01L210.18 18.23H217.62L210.55 36.7L210.54 36.69Z" fill="white"/>
<path d="M227.55 36.69H235.6L232.12 42.14H218.02L227.19 18.23H234.63L227.56 36.7L227.55 36.69Z" fill="white"/>
<path d="M259.65 18.22L257.01 42.13H249.7L251.7 25.93L245.1 36.69H249.16L245.64 42.14H234.51L249.26 18.23H259.64L259.65 18.22Z" fill="white"/>
<path d="M267.57 18.22H282.79C284.1 18.22 284.94 18.5 285.31 19.07C285.68 19.64 285.63 20.52 285.16 21.74L281.78 30.6C281.33 31.77 280.71 32.65 279.92 33.24C279.13 33.83 278.08 34.12 276.77 34.12L277.68 42.14H270.2L269.02 34.06L265.91 42.14H258.47L265.57 23.67H264.12L267.57 18.22ZM273.02 23.67L271.09 28.68H273.53C274.09 28.68 274.54 28.56 274.87 28.31C275.2 28.06 275.5 27.59 275.77 26.89L276.31 25.47C276.58 24.77 276.65 24.3 276.51 24.05C276.37 23.8 276.03 23.68 275.46 23.68H273.02V23.67Z" fill="white"/>
</svg>
