<svg width="425" height="97" viewBox="0 0 425 97" fill="none" xmlns="http://www.w3.org/2000/svg">
<path d="M0.340149 30.9601L66.6501 96.7901L133.73 31.54L103.9 17.04L77.2901 8.24005L57.7201 9.97003L43.7601 7.82007L34.6201 15.5101L0.340149 30.9601Z" fill="white"/>
<path d="M37.6343 14.2071L0 30.2983L0.589709 31.6776L38.224 15.5864L37.6343 14.2071Z" fill="#353435"/>
<path d="M16.5001 47.0801L15.5101 45.9501L36.6701 27.3901L37.6601 28.5201L16.5001 47.0801Z" fill="#353435"/>
<path d="M132.98 32.6201L100.43 16.67L101.08 15.3201L133.64 31.2701L132.98 32.6201Z" fill="#353435"/>
<path d="M99.4476 27.359L98.4531 28.4819L118.598 46.3236L119.593 45.2007L99.4476 27.359Z" fill="#353435"/>
<path d="M77.4402 76.96H61.9902L62.2702 40.02H77.7202L77.4402 76.96Z" fill="#59595C"/>
<path d="M78.0002 77.4201H61.4202L61.7002 39.54H78.2802L78.0002 77.4201ZM62.5402 76.48H76.8702L77.1502 40.48H62.8202L62.5402 76.48Z" fill="#59595C"/>
<path d="M70.1601 51.31C68.1401 51.31 66.5101 49.67 66.5101 47.66C66.5101 45.65 68.1501 44.01 70.1601 44.01C72.1701 44.01 73.8101 45.65 73.8101 47.66C73.8101 49.67 72.1701 51.31 70.1601 51.31ZM70.1601 45.5C68.9701 45.5 68.0001 46.47 68.0001 47.66C68.0001 48.85 68.9701 49.81 70.1601 49.81C71.3501 49.81 72.3101 48.84 72.3101 47.66C72.3101 46.48 71.3501 45.5 70.1601 45.5Z" fill="white"/>
<path d="M76.3601 76.96H60.9001L61.1801 74.45H76.6401L76.3601 76.96Z" fill="#414141"/>
<path d="M36.1402 5.15997C36.1402 5.15997 35.5202 1.34998 69.8002 1.34998C104.08 1.34998 105.58 7.25 103.61 11.37L101.01 15.12H36.1402V5.15997Z" fill="#59595C"/>
<path d="M101.21 15.5H35.7701V5.15997C35.7701 5.15997 35.7501 4.89002 36.0101 4.58002C36.9301 3.50002 42.0701 0.97998 69.8001 0.97998C90.1601 0.97998 101.32 3.00002 103.94 7.15002C104.75 8.43002 104.75 9.85998 103.95 11.54L101.21 15.5ZM36.5101 14.75H100.82L103.31 11.16C103.96 9.78997 103.97 8.58999 103.31 7.54999C100.88 3.68999 89.6001 1.72998 69.8001 1.72998C37.8001 1.72998 36.5501 5.03999 36.5101 5.17999V14.75Z" fill="#221F1F"/>
<path d="M51.3801 21.5599C43.6601 22.6499 34.4101 15.9099 35.8701 4.6499C35.8701 4.6499 28.0801 10.8799 29.5401 20.9099C31.0001 30.9399 37.6201 37.2399 63.1001 39.1499C63.1001 39.1499 56.2101 20.8799 51.3801 21.5499V21.5599Z" fill="#59595C"/>
<path d="M63.4901 39.4299H63.1001C40.0701 39.4299 30.6601 31.8199 29.1601 21.5399C27.6801 11.4099 35.5501 4.97992 35.6301 4.91992L36.5701 4.16992L36.2501 5.32996C35.4201 8.29996 36.0101 11.4799 37.6301 13.4199C42.6101 19.3799 49.1501 19.8299 52.4501 21.1299C56.2601 22.6299 59.9501 31.9099 59.9501 31.9099M35.2201 6.36993C33.2501 8.35993 28.8201 13.7999 29.9301 21.4299C31.3401 31.1299 40.5601 38.54 62.7101 38.65C62.7101 38.65 54.7901 24.31 50.4101 22.28C47.0001 20.7 44.6901 24.4299 37.0001 13.8799C35.3601 11.6199 34.7601 9.09993 35.2201 6.36993Z" fill="#353435"/>
<path d="M88.5201 22.7C95.9501 23.74 104.84 17.2599 103.44 6.42993C103.44 6.42993 110.93 12.4299 109.53 22.0699C108.12 31.7199 101.76 37.7799 77.2501 39.6199C77.2501 39.6199 83.8701 22.0399 88.5201 22.6899V22.7Z" fill="#59595C"/>
<path d="M80.2801 32.64C80.2801 32.64 83.8301 23.71 87.5001 22.27C90.6701 21.02 96.9601 20.5899 101.76 14.8599C103.32 12.9899 103.89 9.93996 103.09 7.07996L102.78 5.95996L103.68 6.67993C103.76 6.73993 111.33 12.9199 109.91 22.6699C108.47 32.5599 99.4101 39.8799 77.2601 39.8799H76.8901M102.37 15.2999C94.9701 25.4499 92.7501 21.8599 89.4701 23.3799C85.2601 25.3299 77.6401 39.1299 77.6401 39.1299C98.9501 39.0199 107.82 31.8899 109.17 22.5599C110.24 15.2199 105.98 9.98995 104.08 8.06995C104.52 10.6999 103.95 13.1199 102.37 15.2999Z" fill="#353435"/>
<path d="M70.1501 63.0099C68.1301 63.0099 66.5001 61.3699 66.5001 59.3599C66.5001 57.3499 68.1401 55.71 70.1501 55.71C72.1601 55.71 73.8001 57.3499 73.8001 59.3599C73.8001 61.3699 72.1601 63.0099 70.1501 63.0099ZM70.1501 57.2C68.9601 57.2 67.9901 58.1699 67.9901 59.3599C67.9901 60.5499 68.9601 61.5099 70.1501 61.5099C71.3401 61.5099 72.3001 60.5399 72.3001 59.3599C72.3001 58.1799 71.3401 57.2 70.1501 57.2Z" fill="white"/>
<path d="M70.1501 73.8101C68.1301 73.8101 66.5001 72.17 66.5001 70.16C66.5001 68.15 68.1401 66.51 70.1501 66.51C72.1601 66.51 73.8001 68.15 73.8001 70.16C73.8001 72.17 72.1601 73.8101 70.1501 73.8101ZM70.1501 68C68.9601 68 67.9901 68.97 67.9901 70.16C67.9901 71.35 68.9601 72.3101 70.1501 72.3101C71.3401 72.3101 72.3001 71.34 72.3001 70.16C72.3001 68.98 71.3401 68 70.1501 68Z" fill="white"/>
<path d="M175.4 28.4H174.22L172.43 17.85L168.37 28.4H160.93L170.1 4.48999H177.88L179.81 15.38L190.09 4.48999H197.87L188.7 28.4H181.26L185.32 17.85L175.41 28.4H175.4Z" fill="white"/>
<path d="M215.35 4.48999L212.71 28.4H205.4L207.4 12.2L200.8 22.96H204.86L201.34 28.41H190.21L204.96 4.5H215.34L215.35 4.48999Z" fill="white"/>
<path d="M233.24 28.4H227.86L225.09 19.47L221.67 28.4H214.23L223.4 4.48999H228.78L231.55 13.42L234.97 4.48999H242.41L233.24 28.4Z" fill="white"/>
<path d="M260.6 4.48999C261.91 4.48999 262.75 4.77003 263.12 5.34003C263.49 5.91003 263.44 6.79001 262.97 8.01001L256.51 24.89C256.04 26.11 255.4 27 254.6 27.56C253.8 28.12 252.74 28.41 251.44 28.41H236.22L243.32 9.94H241.87L245.32 4.48999H260.61H260.6ZM248.25 22.96C248.81 22.96 249.26 22.84 249.59 22.59C249.92 22.34 250.22 21.87 250.49 21.17L254.11 11.73C254.38 11.03 254.45 10.56 254.31 10.31C254.17 10.06 253.82 9.94 253.26 9.94H250.76L245.75 22.96H248.25Z" fill="white"/>
<path d="M281.81 4.48999L279.17 28.4H271.86L273.86 12.2L267.26 22.96H271.32L267.8 28.41H256.67L271.42 4.5H281.8L281.81 4.48999Z" fill="white"/>
<path d="M289.73 4.48999H304.95C306.26 4.48999 307.1 4.77003 307.47 5.34003C307.84 5.91003 307.79 6.79001 307.32 8.01001L303.94 16.87C303.49 18.04 302.87 18.92 302.08 19.51C301.29 20.1 300.24 20.39 298.93 20.39L299.84 28.41H292.36L291.18 20.33L288.07 28.41H280.63L287.73 9.94H286.28L289.73 4.48999ZM295.18 9.94L293.25 14.95H295.69C296.25 14.95 296.7 14.83 297.03 14.58C297.36 14.33 297.66 13.86 297.93 13.16L298.47 11.74C298.74 11.04 298.81 10.57 298.67 10.32C298.53 10.07 298.19 9.95001 297.62 9.95001H295.18V9.94Z" fill="white"/>
<path d="M308.97 28.4H301.53L310.7 4.48999H318.14L308.97 28.4Z" fill="white"/>
<path d="M330.01 28.4H324.63L321.86 19.47L318.44 28.4H311L320.17 4.48999H325.55L328.32 13.42L331.74 4.48999H339.18L330.01 28.4Z" fill="white"/>
<path d="M171.14 61.7501C170.87 62.4501 170.81 62.92 170.95 63.17C171.1 63.42 171.45 63.54 172.02 63.54H181.46L178.01 68.9901H164.72C163.41 68.9901 162.56 68.7101 162.17 68.1401C161.77 67.5801 161.81 66.69 162.29 65.47L168.75 48.5901C169.22 47.3701 169.87 46.48 170.69 45.92C171.51 45.36 172.58 45.0701 173.89 45.0701H184.82C186.13 45.0701 186.97 45.35 187.34 45.92C187.71 46.49 187.66 47.3701 187.19 48.5901L185.36 53.4301H177.92L178.36 52.2801C178.61 51.5801 178.66 51.1101 178.53 50.8801C178.39 50.6401 178.04 50.5201 177.48 50.5201H177.04C176.48 50.5201 176.03 50.6401 175.69 50.8901C175.35 51.1401 175.05 51.6101 174.78 52.3101L171.16 61.7501H171.14Z" fill="white"/>
<path d="M185.17 68.9901C183.86 68.9901 183.01 68.7101 182.62 68.1401C182.22 67.5801 182.26 66.69 182.74 65.47L189.2 48.5901C189.67 47.3701 190.32 46.48 191.14 45.92C191.96 45.36 193.03 45.0701 194.34 45.0701H205.84C207.15 45.0701 207.99 45.35 208.36 45.92C208.73 46.49 208.68 47.3701 208.21 48.5901L201.75 65.47C201.28 66.69 200.64 67.5801 199.84 68.1401C199.04 68.7001 197.98 68.9901 196.68 68.9901H185.18H185.17ZM191.6 61.7501C191.33 62.4501 191.27 62.92 191.41 63.17C191.56 63.42 191.91 63.54 192.48 63.54H193.49C194.05 63.54 194.5 63.42 194.83 63.17C195.16 62.92 195.46 62.4501 195.73 61.7501L199.35 52.3101C199.62 51.6101 199.69 51.1401 199.55 50.8901C199.41 50.6401 199.06 50.5201 198.5 50.5201H197.49C196.93 50.5201 196.48 50.6401 196.14 50.8901C195.8 51.1401 195.5 51.6101 195.23 52.3101L191.61 61.7501H191.6Z" fill="white"/>
<path d="M211.96 63.54H220.01L216.53 68.9901H202.43L211.6 45.0801H219.04L211.97 63.55L211.96 63.54Z" fill="white"/>
<path d="M228.98 63.54H237.03L233.55 68.9901H219.45L228.62 45.0801H236.06L228.99 63.55L228.98 63.54Z" fill="white"/>
<path d="M261.08 45.0801L258.44 68.9901H251.13L253.13 52.79L246.53 63.55H250.59L247.07 69.0001H235.94L250.69 45.0901H261.07L261.08 45.0801Z" fill="white"/>
<path d="M268.99 45.0801H284.21C285.52 45.0801 286.36 45.3601 286.73 45.9301C287.1 46.5001 287.05 47.38 286.58 48.6L283.2 57.4601C282.75 58.6301 282.13 59.51 281.34 60.1C280.55 60.69 279.5 60.98 278.19 60.98L279.1 69.0001H271.62L270.44 60.92L267.33 69.0001H259.89L266.99 50.5301H265.54L268.99 45.0801ZM274.44 50.5301L272.51 55.54H274.95C275.51 55.54 275.96 55.42 276.29 55.17C276.62 54.92 276.92 54.4501 277.19 53.7501L277.73 52.3301C278 51.6301 278.07 51.16 277.93 50.91C277.79 50.66 277.45 50.54 276.88 50.54H274.44V50.5301Z" fill="white"/>
<path d="M294.16 68.9901L301.26 50.5201H299.81L303.26 45.0701H318.48C319.79 45.0701 320.63 45.35 321 45.92C321.37 46.49 321.32 47.3701 320.85 48.5901L318.62 54.41C318.55 54.61 318.41 54.84 318.2 55.1C317.99 55.36 317.75 55.6201 317.49 55.8801C317.23 56.1401 316.97 56.3801 316.7 56.5901C316.43 56.8001 316.2 56.98 316.02 57.11C316.09 57.22 316.17 57.3901 316.27 57.6201C316.37 57.8501 316.46 58.0801 316.52 58.3301C316.59 58.5801 316.63 58.8301 316.66 59.0901C316.68 59.3501 316.65 59.5801 316.56 59.7801L314.4 65.4601C313.93 66.6801 313.29 67.5701 312.49 68.1301C311.69 68.6901 310.64 68.98 309.33 68.98H294.18L294.16 68.9901ZM303.7 63.54H306.14C306.7 63.54 307.15 63.42 307.48 63.17C307.81 62.92 308.11 62.4501 308.38 61.7501L308.45 61.55C308.72 60.85 308.79 60.3801 308.65 60.1301C308.51 59.8801 308.16 59.7601 307.6 59.7601H305.16L303.71 63.55L303.7 63.54ZM310.99 54.0001C311.32 53.7501 311.62 53.2801 311.89 52.5801L311.99 52.3101C312.26 51.6101 312.33 51.1401 312.19 50.8901C312.05 50.6401 311.71 50.5201 311.14 50.5201H308.7L307.21 54.3801H309.65C310.21 54.3801 310.66 54.2601 310.99 54.0101V54.0001Z" fill="white"/>
<path d="M325.09 63.17C325.24 63.42 325.59 63.54 326.16 63.54H327.11C327.67 63.54 328.12 63.42 328.45 63.17C328.78 62.92 329.08 62.4501 329.35 61.7501L335.74 45.0701H343.18L335.37 65.47C334.9 66.69 334.26 67.5801 333.46 68.1401C332.66 68.7001 331.61 68.9901 330.3 68.9901H318.87C317.56 68.9901 316.71 68.7101 316.32 68.1401C315.92 67.5801 315.96 66.69 316.44 65.47L324.25 45.0701H331.69L325.3 61.7501C325.03 62.4501 324.97 62.92 325.11 63.17H325.09Z" fill="white"/>
<path d="M363.23 45.0801L359.71 50.5301H355.62L348.52 69.0001H341.08L348.18 50.5301H342.63L346.18 45.0801H363.23Z" fill="white"/>
<path d="M382.78 45.0801L379.26 50.5301H375.17L368.07 69.0001H360.63L367.73 50.5301H362.18L365.73 45.0801H382.78Z" fill="white"/>
<path d="M378.92 68.9901C377.61 68.9901 376.76 68.7101 376.37 68.1401C375.97 67.5801 376.01 66.69 376.49 65.47L382.95 48.5901C383.42 47.3701 384.07 46.48 384.89 45.92C385.71 45.36 386.78 45.0701 388.09 45.0701H399.59C400.9 45.0701 401.74 45.35 402.11 45.92C402.48 46.49 402.43 47.3701 401.96 48.5901L395.5 65.47C395.03 66.69 394.39 67.5801 393.59 68.1401C392.79 68.7001 391.73 68.9901 390.43 68.9901H378.93H378.92ZM385.35 61.7501C385.08 62.4501 385.02 62.92 385.16 63.17C385.31 63.42 385.66 63.54 386.23 63.54H387.24C387.8 63.54 388.25 63.42 388.58 63.17C388.91 62.92 389.21 62.4501 389.48 61.7501L393.1 52.3101C393.37 51.6101 393.44 51.1401 393.3 50.8901C393.16 50.6401 392.81 50.5201 392.25 50.5201H391.24C390.68 50.5201 390.23 50.6401 389.89 50.8901C389.55 51.1401 389.25 51.6101 388.98 52.3101L385.36 61.7501H385.35Z" fill="white"/>
<path d="M415.18 68.9901H409.8L407.03 60.0601L403.61 68.9901H396.17L405.34 45.0801H410.72L413.49 54.0101L416.91 45.0801H424.35L415.18 68.9901Z" fill="white"/>
</svg>
