<svg width="350" height="97" viewBox="0 0 350 97" fill="none" xmlns="http://www.w3.org/2000/svg">
<path d="M0.530182 30.7401L66.8302 96.5701L133.91 31.3201L104.08 16.8101L77.4802 8.01007L57.9001 9.75006L43.9402 7.59009L34.8002 15.29L0.530182 30.7401Z" fill="white"/>
<path d="M37.8386 14.0184L0.204315 30.1096L0.794025 31.4888L38.4283 15.3976L37.8386 14.0184Z" fill="#353435"/>
<path d="M16.6802 46.85L15.6902 45.73L36.8502 27.17L37.8401 28.29L16.6802 46.85Z" fill="#353435"/>
<path d="M133.17 32.4001L100.61 16.4501L101.27 15.1001L133.82 31.0501L133.17 32.4001Z" fill="#353435"/>
<path d="M99.6215 27.124L98.627 28.2469L118.772 46.0886L119.767 44.9657L99.6215 27.124Z" fill="#353435"/>
<path d="M33.3302 4.94C33.3302 4.94 32.7102 1.13 66.9902 1.13C101.27 1.13 102.77 7.03002 100.8 11.15L98.2002 14.9H33.3202V4.94H33.3302Z" fill="#59595C"/>
<path d="M98.4001 15.28H32.9601V4.94C32.9601 4.94 32.9402 4.66999 33.2002 4.35999C34.1202 3.27999 39.2602 0.76001 66.9902 0.76001C87.3502 0.76001 98.5102 2.77999 101.13 6.92999C101.94 8.20999 101.94 9.64001 101.14 11.32L98.4001 15.28ZM33.7002 14.53H98.0002L100.49 10.94C101.14 9.57 101.15 8.37002 100.49 7.33002C98.0602 3.47002 86.7802 1.51001 66.9802 1.51001C34.9802 1.51001 33.7302 4.82002 33.6902 4.96002V14.53H33.7002Z" fill="#221F1F"/>
<path d="M48.5702 21.34C40.8502 22.43 31.6002 15.6899 33.0602 4.42993C33.0602 4.42993 25.2702 10.6599 26.7302 20.6899C28.1902 30.7199 34.8102 37.0199 60.2902 38.9299C60.2902 38.9299 53.4002 20.66 48.5702 21.33V21.34Z" fill="#59595C"/>
<path d="M60.6701 39.2H60.2801C37.2501 39.2 27.8401 31.5899 26.3401 21.3099C24.8601 11.1799 32.7302 4.74994 32.8102 4.68994L33.7502 3.93994L33.4302 5.09991C32.6002 8.06991 33.1902 11.2499 34.8102 13.1899C39.7902 19.1499 46.3302 19.6 49.6302 20.9C53.4402 22.4 57.1302 31.6799 57.1302 31.6799M32.4001 6.13995C30.4301 8.12995 26.0001 13.57 27.1101 21.2C28.5201 30.9 37.7402 38.3099 59.8902 38.4199C59.8902 38.4199 51.9701 24.0799 47.5901 22.0499C44.1801 20.4699 41.8702 24.2 34.1802 13.65C32.5402 11.39 31.9401 8.86995 32.4001 6.13995Z" fill="#353435"/>
<path d="M85.7101 22.4699C93.1401 23.5099 102.03 17.03 100.63 6.19995C100.63 6.19995 108.12 12.2 106.72 21.84C105.31 31.49 98.9502 37.55 74.4402 39.39C74.4402 39.39 81.0601 21.81 85.7101 22.46V22.4699Z" fill="#59595C"/>
<path d="M77.4601 32.42C77.4601 32.42 81.0102 23.49 84.6802 22.05C87.8502 20.8 94.1402 20.37 98.9402 14.64C100.5 12.77 101.07 9.71999 100.27 6.85999L99.9601 5.73999L100.86 6.46002C100.94 6.52002 108.51 12.7 107.09 22.45C105.65 32.34 96.5902 39.66 74.4402 39.66H74.0702M99.5502 15.08C92.1502 25.23 89.9301 21.64 86.6501 23.16C82.4401 25.11 74.8202 38.91 74.8202 38.91C96.1302 38.8 105 31.67 106.35 22.34C107.42 15 103.16 9.76998 101.26 7.84998C101.7 10.48 101.13 12.9 99.5502 15.08Z" fill="#353435"/>
<path fill-rule="evenodd" clip-rule="evenodd" d="M61.3202 40.1699C61.5502 40.5499 61.7702 40.93 62.0102 41.33C61.4702 41.65 60.9402 41.96 60.3902 42.28C60.1902 41.96 59.9901 41.6399 59.7701 41.2999C60.2801 40.9099 60.7701 40.5399 61.2701 40.1599H61.3302L61.3202 40.1699Z" fill="black"/>
<path fill-rule="evenodd" clip-rule="evenodd" d="M73.7101 40.1699C74.2001 40.5499 74.7001 40.9199 75.2101 41.3099C75.0001 41.6399 74.8001 41.9499 74.5901 42.2899C74.0501 41.9799 73.5302 41.67 72.9702 41.34C73.2002 40.95 73.4302 40.5599 73.6602 40.1799H73.7202L73.7101 40.1699Z" fill="black"/>
<path fill-rule="evenodd" clip-rule="evenodd" d="M65.2502 62.6199H69.7301C69.7301 62.9499 69.7301 63.2799 69.7301 63.6099C69.7301 63.7199 69.7502 63.8599 69.8202 63.9499C70.6902 65.1699 70.8602 66.5299 70.5502 67.9499C70.4102 68.5899 70.1302 69.1799 69.6202 69.7299V68.2499C69.6202 68.0299 69.6202 67.7999 69.6202 67.5799C69.6002 67.1299 69.3302 66.8199 68.8802 66.7899C68.6202 66.7799 68.5602 66.6799 68.5802 66.4499C68.6002 66.2499 68.5802 66.0399 68.5802 65.8299C68.5202 65.1899 68.0102 64.7499 67.3702 64.7699C66.7802 64.7899 66.2901 65.2799 66.2701 65.8899C66.2601 66.1699 66.2701 66.4499 66.2701 66.7399C66.1401 66.7499 66.0301 66.7599 65.9201 66.7799C65.4701 66.8499 65.2201 67.1599 65.2101 67.6699C65.2001 68.2199 65.2101 68.7699 65.2101 69.3199C65.2101 69.4199 65.2002 69.5099 65.1902 69.6699C64.8102 69.2699 64.5802 68.8399 64.4302 68.3899C63.9702 67.0199 64.0401 65.6699 64.7301 64.3899C64.7801 64.2999 64.8202 64.1999 64.8902 64.1299C65.2002 63.8099 65.3102 63.4299 65.2602 62.9899C65.2402 62.8699 65.2602 62.7499 65.2602 62.6099L65.2502 62.6199Z" fill="black"/>
<path fill-rule="evenodd" clip-rule="evenodd" d="M66.2502 67.1199C66.2502 67.6599 66.2502 68.2099 66.2502 68.7599C66.2502 69.2099 66.4702 69.5399 66.8602 69.7599C67.5702 70.1599 68.4802 69.6999 68.5602 68.8799C68.6002 68.3999 68.5802 67.9099 68.5802 67.4199V67.1199C69.0402 67.0099 69.3202 67.2099 69.3202 67.6299C69.3202 69.9699 69.3202 72.3199 69.3202 74.6599C69.3202 75.0499 69.1202 75.2299 68.7202 75.2299C67.8402 75.2299 66.9701 75.2299 66.0901 75.2299C65.7001 75.2299 65.5302 75.0699 65.5302 74.6699C65.5302 72.3299 65.5302 69.9799 65.5302 67.6399C65.5302 67.1899 65.7502 67.0199 66.2502 67.0999V67.1199ZM68.4402 73.1299C68.4402 72.9999 68.4502 72.8699 68.4402 72.7399C68.4102 72.3399 68.2002 72.0799 67.8102 72.0299C66.9802 71.9099 66.2802 72.0099 66.3502 73.1599V73.2399C66.3302 73.6299 66.4202 73.9999 66.8002 74.1499C67.2202 74.3099 67.6701 74.3399 68.0901 74.0899C68.4701 73.8699 68.4402 73.4899 68.4302 73.1199L68.4402 73.1299Z" fill="black"/>
<path fill-rule="evenodd" clip-rule="evenodd" d="M66.5702 67.3499C66.5702 66.8699 66.5602 66.3999 66.5702 65.9199C66.5902 65.3599 67.0501 64.9999 67.6001 65.0999C67.9301 65.1599 68.2402 65.4899 68.2502 65.8799C68.2702 66.8499 68.2702 67.8199 68.2502 68.7899C68.2402 69.2499 67.8501 69.59 67.4001 69.59C66.9601 69.59 66.5902 69.24 66.5702 68.78C66.5502 68.3 66.5702 67.8299 66.5702 67.3499Z" fill="black"/>
<path fill-rule="evenodd" clip-rule="evenodd" d="M64.7002 47.2999C64.8402 47.7199 64.9602 48.11 65.1002 48.52C64.4902 48.71 63.9102 48.89 63.2902 49.08C63.1602 48.69 63.0401 48.3199 62.9001 47.9099C63.5001 47.7099 64.0802 47.4999 64.6902 47.2899L64.7002 47.2999Z" fill="black"/>
<path fill-rule="evenodd" clip-rule="evenodd" d="M69.8802 48.52C70.0202 48.1 70.1502 47.7099 70.2802 47.2999C70.8802 47.4999 71.4602 47.6999 72.0702 47.9099C71.9402 48.3099 71.8202 48.69 71.6902 49.08C71.0802 48.89 70.5002 48.71 69.8802 48.52Z" fill="black"/>
<path fill-rule="evenodd" clip-rule="evenodd" d="M66.0802 52.2999C66.1702 52.7399 66.2402 53.1299 66.3302 53.5599C66.0502 53.6199 65.7802 53.6799 65.5102 53.7299C65.2302 53.7799 64.9602 53.8099 64.6802 53.8699C64.5102 53.9099 64.4401 53.87 64.4101 53.7C64.3701 53.43 64.3202 53.17 64.2602 52.9C64.2302 52.77 64.2402 52.6899 64.3902 52.6599C64.9402 52.5499 65.4802 52.4299 66.0702 52.2999H66.0802Z" fill="black"/>
<path fill-rule="evenodd" clip-rule="evenodd" d="M65.1802 60.11C65.8202 60.08 66.4302 60.04 67.0702 60.01C67.0902 60.42 67.1102 60.79 67.1202 61.17C67.1202 61.21 67.0302 61.29 66.9802 61.29C66.4102 61.29 65.8502 61.29 65.2402 61.29C65.2202 60.92 65.2102 60.53 65.1902 60.1L65.1802 60.11Z" fill="black"/>
<path fill-rule="evenodd" clip-rule="evenodd" d="M71.7302 43.65C71.9302 43.25 72.1102 42.89 72.3102 42.49C72.7502 42.72 73.1702 42.93 73.5802 43.15C74.0002 43.37 74.0002 43.37 73.7802 43.8C73.6702 44.01 73.5702 44.23 73.4502 44.46C72.8702 44.19 72.3202 43.93 71.7302 43.65Z" fill="black"/>
<path fill-rule="evenodd" clip-rule="evenodd" d="M62.6602 42.49C62.8602 42.89 63.0402 43.25 63.2402 43.65C62.6702 43.92 62.1201 44.18 61.5301 44.46C61.3601 44.12 61.1901 43.79 61.0301 43.46C61.0101 43.42 61.0602 43.32 61.1102 43.29C61.6102 43.03 62.1202 42.77 62.6602 42.49Z" fill="black"/>
<path fill-rule="evenodd" clip-rule="evenodd" d="M68.6501 53.5699C68.7401 53.1399 68.8101 52.7499 68.9001 52.3199C69.2801 52.3899 69.6402 52.46 70.0002 52.53C70.1102 52.55 70.2202 52.5799 70.3302 52.6099C70.6102 52.6766 70.7202 52.8533 70.6602 53.14C70.6202 53.33 70.6102 53.5299 70.5502 53.7199C70.5302 53.7899 70.4302 53.8899 70.3802 53.8799C69.8102 53.7899 69.2502 53.6799 68.6402 53.5699H68.6501Z" fill="black"/>
<path fill-rule="evenodd" clip-rule="evenodd" d="M66.7101 56.1199C66.1201 56.1999 65.5702 56.2799 65.0102 56.3399C64.9502 56.3399 64.8402 56.2599 64.8302 56.1999C64.7702 55.8599 64.7302 55.5199 64.6702 55.1399C65.2702 55.0499 65.8402 54.9599 66.4202 54.8699C66.4602 54.8699 66.5602 54.9399 66.5602 54.9799C66.6202 55.3499 66.6602 55.7199 66.7002 56.1099L66.7101 56.1199Z" fill="black"/>
<path fill-rule="evenodd" clip-rule="evenodd" d="M69.5102 49.78C70.1402 49.96 70.7202 50.12 71.3302 50.28C71.2402 50.64 71.1602 50.98 71.0602 51.32C71.0402 51.37 70.9202 51.44 70.8602 51.43C70.3202 51.31 69.7802 51.17 69.2002 51.03C69.3002 50.61 69.4002 50.21 69.5102 49.78Z" fill="black"/>
<path fill-rule="evenodd" clip-rule="evenodd" d="M69.7902 60.11C69.7702 60.54 69.7502 60.93 69.7402 61.3C69.1302 61.3 68.5602 61.3 67.9802 61.3C67.9302 61.3 67.8502 61.2 67.8502 61.14C67.8502 60.82 67.8602 60.51 67.8902 60.19C67.8902 60.13 68.0002 60.03 68.0502 60.03C68.6202 60.05 69.1802 60.08 69.7902 60.12V60.11Z" fill="black"/>
<path fill-rule="evenodd" clip-rule="evenodd" d="M64.2602 46.0599C63.6602 46.2899 63.1002 46.4999 62.4902 46.7399C62.3402 46.3599 62.1902 45.9999 62.0302 45.5999C62.6102 45.3499 63.1701 45.1099 63.7701 44.8599C63.9301 45.2599 64.0902 45.6399 64.2602 46.0599Z" fill="black"/>
<path fill-rule="evenodd" clip-rule="evenodd" d="M63.6402 50.28C64.2702 50.11 64.8501 49.95 65.4601 49.78C65.5701 50.2 65.6702 50.59 65.7802 51.02C65.1602 51.17 64.5702 51.31 63.9402 51.47C63.8402 51.07 63.7402 50.69 63.6402 50.27V50.28Z" fill="black"/>
<path fill-rule="evenodd" clip-rule="evenodd" d="M68.1102 57.4199C68.7402 57.4899 69.3302 57.5499 69.9802 57.6299C69.9502 58.0099 69.9302 58.3799 69.8902 58.7399C69.8902 58.7799 69.7602 58.84 69.7002 58.84C69.1902 58.81 68.6802 58.7699 68.1702 58.7199C68.1102 58.7199 68.0102 58.6 68.0102 58.53C68.0302 58.18 68.0702 57.8299 68.1102 57.4299V57.4199Z" fill="black"/>
<path fill-rule="evenodd" clip-rule="evenodd" d="M66.8702 57.4199C66.9102 57.8599 66.9502 58.26 66.9902 58.7C66.7502 58.72 66.5302 58.7399 66.3102 58.7599C65.9802 58.7899 65.6402 58.82 65.3102 58.83C65.2402 58.83 65.1102 58.76 65.1002 58.7C65.0502 58.35 65.0402 57.9999 65.0102 57.6299C65.6502 57.5599 66.2502 57.4899 66.8802 57.4299L66.8702 57.4199Z" fill="black"/>
<path fill-rule="evenodd" clip-rule="evenodd" d="M70.3002 55.14C70.2502 55.52 70.2002 55.87 70.1402 56.22C70.1402 56.27 70.0302 56.35 69.9702 56.35C69.4102 56.29 68.8502 56.21 68.2602 56.13C68.3102 55.74 68.3502 55.36 68.4102 54.99C68.4102 54.95 68.5401 54.89 68.5901 54.9C69.1401 54.98 69.6902 55.06 70.2902 55.16L70.3002 55.14Z" fill="black"/>
<path fill-rule="evenodd" clip-rule="evenodd" d="M70.7202 46.0599C70.8902 45.6399 71.0402 45.2699 71.2002 44.8599C71.7802 45.1099 72.3502 45.3399 72.9402 45.5899C72.7802 45.9799 72.6402 46.3399 72.4802 46.7299C71.8902 46.4999 71.3201 46.2899 70.7101 46.0599H70.7202Z" fill="black"/>
<path d="M175.58 27.0699H174.4L172.61 16.52L168.55 27.0699H161.11L170.28 3.15991H178.06L179.99 14.0499L190.27 3.15991H198.05L188.88 27.0699H181.44L185.5 16.52L175.59 27.0699H175.58Z" fill="white"/>
<path d="M215.53 3.15002L212.89 27.06H205.58L207.58 10.86L200.98 21.62H205.04L201.52 27.07H190.39L205.14 3.15997H215.52L215.53 3.15002Z" fill="white"/>
<path d="M233.42 27.0699H228.04L225.27 18.14L221.85 27.0699H214.41L223.58 3.15991H228.96L231.73 12.09L235.15 3.15991H242.59L233.42 27.0699Z" fill="white"/>
<path d="M260.79 3.15002C262.1 3.15002 262.94 3.43 263.31 4C263.68 4.57 263.63 5.44998 263.16 6.66998L256.7 23.55C256.23 24.77 255.59 25.66 254.79 26.22C253.99 26.78 252.93 27.07 251.63 27.07H236.41L243.51 8.59998H242.05L245.5 3.15002H260.79ZM248.44 21.62C249 21.62 249.45 21.5 249.78 21.25C250.11 21 250.4 20.53 250.68 19.83L254.3 10.39C254.57 9.69001 254.64 9.21997 254.5 8.96997C254.37 8.71997 254.02 8.59998 253.45 8.59998H250.95L245.94 21.62H248.44Z" fill="white"/>
<path d="M281.99 3.15002L279.35 27.06H272.04L274.04 10.86L267.44 21.62H271.5L267.98 27.07H256.85L271.6 3.15997H281.98L281.99 3.15002Z" fill="white"/>
<path d="M289.91 3.15002H305.13C306.44 3.15002 307.28 3.43 307.65 4C308.02 4.57 307.97 5.44998 307.5 6.66998L304.12 15.53C303.67 16.7 303.05 17.58 302.26 18.17C301.47 18.76 300.42 19.05 299.11 19.05L300.02 27.07H292.55L291.37 18.99L288.26 27.07H280.82L287.92 8.59998H286.46L289.91 3.15002ZM295.36 8.59998L293.43 13.61H295.87C296.43 13.61 296.88 13.49 297.21 13.24C297.54 12.99 297.84 12.52 298.11 11.82L298.65 10.4C298.92 9.70002 298.99 9.22998 298.85 8.97998C298.72 8.72998 298.36 8.60999 297.8 8.60999H295.37L295.36 8.59998Z" fill="white"/>
<path d="M309.16 27.0699H301.72L310.89 3.15991H318.33L309.16 27.0699Z" fill="white"/>
<path d="M330.19 27.0699H324.81L322.04 18.14L318.62 27.0699H311.18L320.35 3.15991H325.73L328.5 12.09L331.92 3.15991H339.36L330.19 27.0699Z" fill="white"/>
<path d="M171.32 60.42C171.05 61.12 170.99 61.59 171.13 61.84C171.28 62.09 171.63 62.21 172.2 62.21H181.64L178.19 67.66H164.9C163.59 67.66 162.74 67.38 162.35 66.81C161.96 66.25 162 65.36 162.47 64.14L168.93 47.26C169.4 46.04 170.05 45.15 170.88 44.59C171.7 44.03 172.77 43.74 174.08 43.74H185C186.31 43.74 187.15 44.02 187.52 44.59C187.89 45.16 187.84 46.04 187.37 47.26L185.54 52.1H178.1L178.54 50.95C178.79 50.25 178.84 49.78 178.71 49.55C178.58 49.31 178.22 49.19 177.66 49.19H177.22C176.66 49.19 176.21 49.31 175.87 49.56C175.53 49.81 175.23 50.28 174.96 50.98L171.34 60.42H171.32Z" fill="white"/>
<path d="M185.36 67.66C184.05 67.66 183.2 67.38 182.81 66.81C182.42 66.25 182.46 65.36 182.93 64.14L189.39 47.26C189.86 46.04 190.51 45.15 191.34 44.59C192.16 44.03 193.23 43.74 194.54 43.74H206.04C207.35 43.74 208.19 44.02 208.56 44.59C208.93 45.16 208.88 46.04 208.41 47.26L201.95 64.14C201.48 65.36 200.84 66.25 200.04 66.81C199.24 67.37 198.19 67.66 196.88 67.66H185.38H185.36ZM191.79 60.42C191.52 61.12 191.46 61.59 191.6 61.84C191.75 62.09 192.1 62.21 192.67 62.21H193.68C194.24 62.21 194.69 62.09 195.02 61.84C195.35 61.59 195.65 61.12 195.92 60.42L199.54 50.98C199.81 50.28 199.88 49.81 199.74 49.56C199.6 49.31 199.25 49.19 198.69 49.19H197.68C197.12 49.19 196.67 49.31 196.33 49.56C195.99 49.81 195.69 50.28 195.42 50.98L191.8 60.42H191.79Z" fill="white"/>
<path d="M212.15 62.21H220.2L216.72 67.66H202.62L211.79 43.75H219.23L212.16 62.22L212.15 62.21Z" fill="white"/>
<path d="M229.16 62.21H237.21L233.73 67.66H219.63L228.8 43.75H236.24L229.17 62.22L229.16 62.21Z" fill="white"/>
<path d="M261.26 43.74L258.62 67.65H251.31L253.31 51.45L246.71 62.21H250.77L247.25 67.66H236.12L250.87 43.75H261.25L261.26 43.74Z" fill="white"/>
<path d="M269.17 43.74H284.39C285.7 43.74 286.54 44.02 286.91 44.59C287.28 45.16 287.23 46.04 286.76 47.26L283.38 56.12C282.93 57.29 282.31 58.17 281.52 58.76C280.73 59.35 279.68 59.64 278.37 59.64L279.28 67.66H271.81L270.63 59.58L267.52 67.66H260.08L267.18 49.19H265.72L269.17 43.74ZM274.62 49.19L272.69 54.2H275.13C275.69 54.2 276.14 54.08 276.47 53.83C276.8 53.58 277.1 53.11 277.37 52.41L277.91 50.99C278.18 50.29 278.25 49.82 278.11 49.57C277.98 49.32 277.62 49.2 277.06 49.2H274.63L274.62 49.19Z" fill="white"/>
<path d="M295.46 62.24L309.33 49.18H300.5L304.05 43.73H319.64L317.58 49.18L303.75 62.2H312.58L309.03 67.65H293.4L295.46 62.24Z" fill="white"/>
<path d="M319.94 67.66H312.5L321.67 43.75H329.11L319.94 67.66Z" fill="white"/>
<path d="M349.76 44.59C350.13 45.15 350.08 46.04 349.61 47.26L346.23 56.12C345.76 57.34 345.12 58.23 344.32 58.79C343.52 59.35 342.47 59.64 341.16 59.64H333.45L330.37 67.66H322.93L330.03 49.19H328.57L332.02 43.74H347.24C348.55 43.74 349.39 44.02 349.76 44.59ZM337.97 54.2C338.53 54.2 338.98 54.08 339.31 53.83C339.64 53.58 339.94 53.11 340.21 52.41L340.75 50.99C341.02 50.29 341.09 49.82 340.95 49.57C340.82 49.32 340.46 49.2 339.9 49.2H337.47L335.54 54.21H337.98L337.97 54.2Z" fill="white"/>
</svg>
