<svg width="401" height="92" viewBox="0 0 401 92" fill="none" xmlns="http://www.w3.org/2000/svg">
<path d="M0.350159 25.97L66.7702 91.91L133.96 26.55L102.04 11.52L75.6802 15.45L55.0202 14.48L45.9402 12.96L34.6902 10.49L0.350159 25.97Z" fill="white"/>
<path d="M37.8041 9.11797L0.105469 25.2367L0.710919 26.6527L38.4095 10.534L37.8041 9.11797Z" fill="#353435"/>
<path d="M38.2029 22.0944L15.6241 40.8929L16.6095 42.0765L39.1883 23.2779L38.2029 22.0944Z" fill="#353435"/>
<path d="M103.065 11.5451L102.402 12.9352L133.219 27.6275L133.882 26.2374L103.065 11.5451Z" fill="#353435"/>
<path d="M97.6815 22.1539L96.7061 23.3456L118.791 41.4223L119.767 40.2306L97.6815 22.1539Z" fill="#353435"/>
<path d="M92.8702 3.12H41.4502V15.28H92.8702V3.12Z" fill="#59595C"/>
<path d="M93.2602 15.67H41.0602V2.72998H93.2602V15.67ZM41.8302 14.9H92.4802V3.51001H41.8302V14.9Z" fill="#353435"/>
<path d="M49.1702 41.86H81.1002L69.7002 57.54L63.5202 58.23L49.1702 41.86Z" fill="#59595C"/>
<path d="M56.1302 57.79L38.3502 33.35L45.2802 27.65L66.8602 58.05L56.1302 57.79Z" fill="#59595C" stroke="#353435" stroke-width="0.65" stroke-linejoin="round"/>
<path d="M78.3202 57.79L96.7102 33.35L89.5502 27.65L67.2302 58.05L78.3202 57.79Z" fill="#59595C" stroke="#353435" stroke-width="0.65" stroke-linejoin="round"/>
<path d="M107.22 38.39V13.03L92.6702 3.12L87.1402 31.95C87.1402 31.95 86.7502 27.71 107.22 38.39Z" fill="#59595C"/>
<path d="M107.61 39.03L107.04 38.73C95.6001 32.76 90.7801 31.51 88.7601 31.51C88.0101 31.51 87.6501 31.69 87.5501 31.87L87.0001 34.74L86.7601 32C86.7601 32 86.7501 31.82 86.8101 31.65L92.4101 2.47998L107.61 12.84V39.04V39.03ZM88.7601 30.74C91.7201 30.74 97.9701 33.17 106.83 37.76V13.24L92.9401 3.77002L87.7401 30.86C88.0001 30.78 88.3401 30.73 88.7601 30.73V30.74Z" fill="#353435"/>
<path d="M26.9002 38.39V13.03L41.4502 3.12L46.9802 31.95C46.9802 31.95 47.3602 27.71 26.9002 38.39Z" fill="#59595C"/>
<path d="M26.5102 39.03V12.83L41.7102 2.46997L47.3102 31.64C47.3702 31.81 47.3702 31.95 47.3602 31.99L47.1202 34.73L46.5702 31.86C46.4702 31.68 46.1102 31.5 45.3602 31.5C43.3302 31.5 38.5202 32.75 27.0702 38.72L26.5102 39.02V39.03ZM27.2802 13.24V37.76C36.1502 33.17 42.4002 30.74 45.3602 30.74C45.7802 30.74 46.1102 30.79 46.3702 30.87L41.1702 3.78003L27.2802 13.25V13.24Z" fill="#353435"/>
<path d="M169.56 0.660034H184.78C186.09 0.660034 186.93 0.94001 187.3 1.51001C187.67 2.08001 187.62 2.96005 187.15 4.18005L183.77 13.04C183.32 14.21 182.7 15.0901 181.91 15.6801C181.12 16.2701 180.07 16.5601 178.76 16.5601L179.67 24.58H172.19L171.01 16.5L167.9 24.58H160.46L167.56 6.10999H166.11L169.56 0.660034ZM175.01 6.10999L173.08 11.12H175.52C176.08 11.12 176.53 11 176.86 10.75C177.19 10.5 177.49 10.03 177.76 9.32996L178.3 7.91003C178.57 7.21003 178.64 6.73999 178.5 6.48999C178.36 6.23999 178.02 6.12 177.45 6.12H175.01V6.10999Z" fill="white"/>
<path d="M181.37 24.5699L190.54 0.660034H207.59L204.07 6.10999H195.92L194.43 9.96997H202.48L199 15.35H192.37L190.92 19.14H200.49L196.97 24.59H181.38L181.37 24.5699Z" fill="white"/>
<path d="M227.13 0.660034L223.61 6.10999H219.52L212.42 24.58H204.98L212.08 6.10999H206.53L210.08 0.660034H227.13Z" fill="white"/>
<path d="M229.36 0.660034H244.58C245.89 0.660034 246.73 0.94001 247.1 1.51001C247.47 2.08001 247.42 2.96005 246.95 4.18005L243.57 13.04C243.12 14.21 242.5 15.0901 241.71 15.6801C240.92 16.2701 239.87 16.5601 238.56 16.5601L239.47 24.58H231.99L230.81 16.5L227.7 24.58H220.26L227.36 6.10999H225.91L229.36 0.660034ZM234.81 6.10999L232.88 11.12H235.32C235.88 11.12 236.33 11 236.66 10.75C236.99 10.5 237.29 10.03 237.56 9.32996L238.1 7.91003C238.37 7.21003 238.44 6.73999 238.3 6.48999C238.16 6.23999 237.82 6.12 237.25 6.12H234.81V6.10999Z" fill="white"/>
<path d="M244.96 24.5699C243.65 24.5699 242.8 24.29 242.41 23.72C242.01 23.16 242.05 22.27 242.53 21.05L248.99 4.17004C249.46 2.95004 250.11 2.06 250.93 1.5C251.75 0.94 252.82 0.650024 254.13 0.650024H265.63C266.94 0.650024 267.78 0.93 268.15 1.5C268.52 2.07 268.47 2.95004 268 4.17004L261.54 21.05C261.07 22.27 260.43 23.16 259.63 23.72C258.83 24.28 257.77 24.5699 256.47 24.5699H244.97H244.96ZM251.39 17.33C251.12 18.03 251.06 18.5 251.2 18.75C251.35 19 251.7 19.12 252.27 19.12H253.28C253.84 19.12 254.29 19 254.62 18.75C254.95 18.5 255.25 18.03 255.52 17.33L259.14 7.89001C259.41 7.19001 259.48 6.71997 259.34 6.46997C259.2 6.21997 258.85 6.09998 258.29 6.09998H257.28C256.72 6.09998 256.27 6.21997 255.93 6.46997C255.59 6.71997 255.29 7.19001 255.02 7.89001L251.4 17.33H251.39Z" fill="white"/>
<path d="M284.84 17.33C284.57 18.03 284.51 18.5 284.65 18.75C284.8 19 285.15 19.12 285.72 19.12H295.16L291.71 24.5699H278.42C277.11 24.5699 276.26 24.29 275.87 23.72C275.47 23.16 275.51 22.27 275.99 21.05L282.45 4.17004C282.92 2.95004 283.57 2.06 284.39 1.5C285.21 0.94 286.28 0.650024 287.59 0.650024H298.52C299.83 0.650024 300.67 0.93 301.04 1.5C301.41 2.07 301.36 2.95004 300.89 4.17004L299.06 9.01001H291.62L292.06 7.85999C292.31 7.15999 292.36 6.68996 292.23 6.45996C292.09 6.21996 291.74 6.09998 291.18 6.09998H290.74C290.18 6.09998 289.73 6.21997 289.39 6.46997C289.05 6.71997 288.75 7.19001 288.48 7.89001L284.86 17.33H284.84Z" fill="white"/>
<path d="M298.87 24.5699C297.56 24.5699 296.71 24.29 296.32 23.72C295.92 23.16 295.96 22.27 296.44 21.05L302.9 4.17004C303.37 2.95004 304.02 2.06 304.84 1.5C305.66 0.94 306.73 0.650024 308.04 0.650024H319.54C320.85 0.650024 321.69 0.93 322.06 1.5C322.43 2.07 322.38 2.95004 321.91 4.17004L315.45 21.05C314.98 22.27 314.34 23.16 313.54 23.72C312.74 24.28 311.68 24.5699 310.38 24.5699H298.88H298.87ZM305.3 17.33C305.03 18.03 304.97 18.5 305.11 18.75C305.26 19 305.61 19.12 306.18 19.12H307.19C307.75 19.12 308.2 19 308.53 18.75C308.86 18.5 309.16 18.03 309.43 17.33L313.05 7.89001C313.32 7.19001 313.39 6.71997 313.25 6.46997C313.11 6.21997 312.76 6.09998 312.2 6.09998H311.19C310.63 6.09998 310.18 6.21997 309.84 6.46997C309.5 6.71997 309.2 7.19001 308.93 7.89001L305.31 17.33H305.3Z" fill="white"/>
<path d="M325.66 19.13H333.71L330.23 24.58H316.13L325.3 0.670044H332.74L325.67 19.14L325.66 19.13Z" fill="white"/>
<path d="M342.68 19.13H350.73L347.25 24.58H333.15L342.32 0.670044H349.76L342.69 19.14L342.68 19.13Z" fill="white"/>
<path d="M374.77 0.660034L372.13 24.5699H364.82L366.82 8.37L360.22 19.13H364.28L360.76 24.58H349.63L364.38 0.670044H374.76L374.77 0.660034Z" fill="white"/>
<path d="M382.69 0.660034H397.91C399.22 0.660034 400.06 0.94001 400.43 1.51001C400.8 2.08001 400.75 2.96005 400.28 4.18005L396.9 13.04C396.45 14.21 395.83 15.0901 395.04 15.6801C394.25 16.2701 393.2 16.5601 391.89 16.5601L392.8 24.58H385.32L384.14 16.5L381.03 24.58H373.59L380.69 6.10999H379.24L382.69 0.660034ZM388.14 6.10999L386.21 11.12H388.65C389.21 11.12 389.66 11 389.99 10.75C390.32 10.5 390.62 10.03 390.89 9.32996L391.43 7.91003C391.7 7.21003 391.77 6.73999 391.63 6.48999C391.49 6.23999 391.15 6.12 390.58 6.12H388.14V6.10999Z" fill="white"/>
<path d="M164.42 65.16L168.17 41.25H175.48L172.57 57.21L181.94 41.25H189.31L174.73 65.16H164.41H164.42Z" fill="white"/>
<path d="M213.09 65.16H207.71L204.94 56.23L201.52 65.16H194.08L203.25 41.25H208.63L211.4 50.1801L214.82 41.25H222.26L213.09 65.16Z" fill="white"/>
<path d="M218.91 65.16C217.6 65.16 216.75 64.8801 216.36 64.3101C215.96 63.7501 216 62.86 216.48 61.64L222.94 44.76C223.41 43.54 224.06 42.65 224.88 42.09C225.7 41.53 226.77 41.24 228.08 41.24H239.58C240.89 41.24 241.73 41.52 242.1 42.09C242.47 42.66 242.42 43.54 241.95 44.76L235.49 61.64C235.02 62.86 234.38 63.7501 233.58 64.3101C232.78 64.8701 231.72 65.16 230.42 65.16H218.92H218.91ZM225.34 57.92C225.07 58.62 225.01 59.09 225.15 59.34C225.3 59.59 225.65 59.71 226.22 59.71H227.23C227.79 59.71 228.24 59.59 228.57 59.34C228.9 59.09 229.2 58.62 229.47 57.92L233.09 48.48C233.36 47.78 233.43 47.3101 233.29 47.0601C233.15 46.8101 232.8 46.6899 232.24 46.6899H231.23C230.67 46.6899 230.22 46.8101 229.88 47.0601C229.54 47.3101 229.24 47.78 228.97 48.48L225.35 57.92H225.34Z" fill="white"/>
<path d="M248.57 65.16L257.74 41.25H274.79L271.27 46.7H263.12L261.63 50.5601H269.68L266.2 55.9399H259.57L258.12 59.73H267.69L264.17 65.1801H248.58L248.57 65.16Z" fill="white"/>
<path d="M286.15 65.16H280.77L278 56.23L274.58 65.16H267.14L276.31 41.25H281.69L284.46 50.1801L287.88 41.25H295.32L286.15 65.16Z" fill="white"/>
<path d="M313.52 41.25C314.83 41.25 315.67 41.53 316.04 42.1C316.41 42.67 316.36 43.55 315.89 44.77L309.43 61.65C308.96 62.87 308.32 63.7599 307.52 64.3199C306.72 64.8799 305.66 65.17 304.36 65.17H289.14L296.24 46.7H294.79L298.24 41.25H313.53H313.52ZM301.17 59.72C301.73 59.72 302.18 59.6 302.51 59.35C302.84 59.1 303.14 58.6301 303.41 57.9301L307.03 48.49C307.3 47.79 307.37 47.3199 307.23 47.0699C307.09 46.8199 306.74 46.7 306.18 46.7H303.68L298.67 59.72H301.17Z" fill="white"/>
</svg>
