<svg width="401" height="91" viewBox="0 0 401 91" fill="none" xmlns="http://www.w3.org/2000/svg">
<path d="M0.530182 24.2301L66.9502 90.1602L134.14 24.8001L102.22 9.78015L75.8602 13.7001L55.2101 12.7401L46.1202 11.2101L34.8702 8.74011L0.530182 24.2301Z" fill="white"/>
<path d="M37.9601 7.34208L0.261414 23.4608L0.86684 24.8768L38.5655 8.75805L37.9601 7.34208Z" fill="#353435"/>
<path d="M38.3433 20.3255L15.7645 39.124L16.7499 40.3075L39.3286 21.509L38.3433 20.3255Z" fill="#353435"/>
<path d="M103.241 9.79132L102.578 11.1814L133.395 25.8737L134.058 24.4836L103.241 9.79132Z" fill="#353435"/>
<path d="M97.8736 20.3971L96.8981 21.5889L118.984 39.6655L119.959 38.4738L97.8736 20.3971Z" fill="#353435"/>
<path d="M93.0502 1.38H41.6302V13.54H93.0502V1.38Z" fill="#59595C"/>
<path d="M93.4402 13.93H41.2402V0.98999H93.4402V13.93ZM42.0102 13.16H92.6602V1.77002H42.0102V13.16Z" fill="#353435"/>
<path d="M51.5402 37.79H83.4702L71.5102 55.0701L61.7802 52.5701L51.5402 37.79Z" fill="#59595C"/>
<path d="M46.4001 25.3699C46.4001 25.3699 44.6901 27.1699 48.4701 32.6599C52.2501 38.1499 67.1202 51.6299 67.1202 51.6299L87.0502 31.3999C87.0502 31.3999 92.4501 23.4799 89.0301 24.1099C89.0301 24.1099 97.4902 26.6299 96.5002 29.6899C95.5102 32.7499 83.7601 50.64 67.4801 62.06C67.4801 62.06 43.1602 43.0899 38.7502 31.5799C38.7502 31.5799 37.4002 30.7699 40.5502 27.7099C43.7002 24.6499 44.1501 25.1899 46.4001 25.3699Z" fill="#59595C"/>
<path d="M67.4701 62.4L67.3202 62.27C67.1202 62.11 42.9701 43.19 38.5301 31.74C38.4201 31.64 38.2501 31.44 38.2101 31.08C38.1101 30.2 38.8302 29 40.3702 27.51C43.2802 24.69 44.0001 24.83 45.6601 25.02C45.8901 25.05 46.1502 25.0799 46.4202 25.0999L46.9802 25.14L46.5901 25.55C46.5901 25.55 45.1202 27.32 48.6902 32.5C52.1302 37.49 65.6602 49.73 67.1202 51.23L86.8602 31.2C88.1902 29.25 90.1502 25.7799 89.8802 24.6599C89.3202 24.4699 88.9701 24.36 88.9601 24.36L87.8802 24.04L88.9902 23.84C89.7602 23.7 90.1201 23.96 90.2801 24.24C93.1001 25.25 97.5701 27.28 96.7701 29.77C95.7601 32.87 83.9501 50.85 67.6501 62.28L67.4802 62.4H67.4701ZM44.6302 25.49C43.6802 25.49 42.8502 25.8499 40.7402 27.9099C38.9202 29.6799 38.7002 30.6 38.7402 31C38.7602 31.26 38.8901 31.35 38.9001 31.36L38.9701 31.4099L39.0102 31.49C43.1402 42.27 65.6102 60.18 67.5002 61.73C83.5602 50.4 95.2602 32.67 96.2502 29.61C96.9202 27.56 92.4202 25.62 90.4402 24.88C90.4602 26.84 87.6402 31.04 87.2902 31.55L67.1402 52.02L66.9402 51.82C66.8302 51.71 52.0002 38.26 48.2502 32.82C45.3302 28.58 45.6201 26.43 45.9601 25.61C45.8401 25.6 45.7201 25.58 45.6001 25.57C45.2401 25.53 44.9302 25.5 44.6302 25.5V25.49Z" fill="#353435"/>
<path d="M107.41 36.64V11.28L92.8601 1.37L87.3302 30.2C87.3302 30.2 86.9401 25.96 107.41 36.64Z" fill="#59595C"/>
<path d="M107.79 37.28L107.22 36.98C95.7802 31.01 90.9602 29.76 88.9402 29.76C88.1902 29.76 87.8302 29.94 87.7302 30.12L87.1802 32.99L86.9402 30.25C86.9402 30.25 86.9302 30.07 86.9902 29.9L92.5902 0.72998L107.79 11.09V37.29V37.28ZM88.9402 28.99C91.9002 28.99 98.1502 31.42 107.01 36.01V11.49L93.1202 2.02002L87.9202 29.11C88.1802 29.03 88.5202 28.98 88.9402 28.98V28.99Z" fill="#353435"/>
<path d="M27.0802 36.64V11.28L41.6302 1.37L47.1602 30.2C47.1602 30.2 47.5402 25.96 27.0802 36.64Z" fill="#59595C"/>
<path d="M26.7002 37.28V11.08L41.9001 0.719971L47.5002 29.89C47.5602 30.06 47.5602 30.2 47.5502 30.24L47.3102 32.98L46.7602 30.11C46.6602 29.93 46.3002 29.75 45.5502 29.75C43.5202 29.75 38.7102 31 27.2602 36.97L26.7002 37.27V37.28ZM27.4702 11.49V36.01C36.3402 31.42 42.5902 28.99 45.5502 28.99C45.9702 28.99 46.3002 29.04 46.5602 29.12L41.3602 2.03003L27.4702 11.5V11.49Z" fill="#353435"/>
<path d="M67.1202 51.02L67.5402 65.95" stroke="white" stroke-width="1.31" stroke-miterlimit="10"/>
<path d="M169.74 19.3401H184.96C186.27 19.3401 187.11 19.6201 187.48 20.1901C187.85 20.7601 187.8 21.64 187.33 22.86L183.95 31.72C183.5 32.89 182.88 33.77 182.09 34.36C181.3 34.95 180.25 35.2401 178.94 35.2401L179.85 43.2601H172.38L171.2 35.1801L168.09 43.2601H160.65L167.75 24.79H166.29L169.74 19.3401ZM175.19 24.79L173.26 29.8H175.7C176.26 29.8 176.71 29.6801 177.04 29.4301C177.37 29.1801 177.67 28.7101 177.94 28.0101L178.48 26.5901C178.75 25.8901 178.82 25.42 178.68 25.17C178.55 24.92 178.19 24.8 177.63 24.8H175.2L175.19 24.79Z" fill="white"/>
<path d="M181.55 43.2601L190.72 19.3501H207.77L204.25 24.8001H196.1L194.61 28.6601H202.66L199.18 34.0401H192.55L191.1 37.8301H200.67L197.15 43.2802H181.56L181.55 43.2601Z" fill="white"/>
<path d="M227.31 19.3401L223.79 24.79H219.7L212.6 43.2601H205.16L212.26 24.79H206.71L210.26 19.3401H227.31Z" fill="white"/>
<path d="M229.55 19.3401H244.77C246.08 19.3401 246.92 19.6201 247.29 20.1901C247.66 20.7601 247.61 21.64 247.14 22.86L243.76 31.72C243.31 32.89 242.69 33.77 241.9 34.36C241.11 34.95 240.06 35.2401 238.75 35.2401L239.66 43.2601H232.19L231.01 35.1801L227.9 43.2601H220.46L227.56 24.79H226.1L229.55 19.3401ZM235 24.79L233.07 29.8H235.51C236.07 29.8 236.52 29.6801 236.85 29.4301C237.18 29.1801 237.48 28.7101 237.75 28.0101L238.29 26.5901C238.56 25.8901 238.63 25.42 238.49 25.17C238.36 24.92 238 24.8 237.44 24.8H235.01L235 24.79Z" fill="white"/>
<path d="M245.14 43.2601C243.83 43.2601 242.98 42.98 242.59 42.41C242.2 41.85 242.24 40.9601 242.71 39.7401L249.17 22.86C249.64 21.64 250.29 20.7501 251.12 20.1901C251.94 19.6301 253.01 19.3401 254.32 19.3401H265.82C267.13 19.3401 267.97 19.6201 268.34 20.1901C268.71 20.7601 268.66 21.64 268.19 22.86L261.73 39.7401C261.26 40.9601 260.62 41.85 259.82 42.41C259.02 42.97 257.97 43.2601 256.66 43.2601H245.16H245.14ZM251.57 36.0201C251.3 36.7201 251.24 37.1901 251.38 37.4401C251.53 37.6901 251.88 37.8101 252.45 37.8101H253.46C254.02 37.8101 254.47 37.6901 254.8 37.4401C255.13 37.1901 255.43 36.7201 255.7 36.0201L259.32 26.5801C259.59 25.8801 259.66 25.41 259.52 25.16C259.38 24.91 259.03 24.79 258.47 24.79H257.46C256.9 24.79 256.45 24.91 256.11 25.16C255.77 25.41 255.47 25.8801 255.2 26.5801L251.58 36.0201H251.57Z" fill="white"/>
<path d="M285.02 36.0201C284.75 36.7201 284.69 37.1901 284.83 37.4401C284.98 37.6901 285.33 37.8101 285.9 37.8101H295.34L291.89 43.2601H278.6C277.29 43.2601 276.44 42.98 276.05 42.41C275.66 41.85 275.7 40.9601 276.17 39.7401L282.63 22.86C283.1 21.64 283.75 20.7501 284.58 20.1901C285.4 19.6301 286.47 19.3401 287.78 19.3401H298.7C300.01 19.3401 300.85 19.6201 301.22 20.1901C301.59 20.7601 301.54 21.64 301.07 22.86L299.24 27.7001H291.8L292.24 26.55C292.49 25.85 292.54 25.3801 292.41 25.1501C292.28 24.9101 291.92 24.79 291.36 24.79H290.92C290.36 24.79 289.91 24.91 289.57 25.16C289.23 25.41 288.93 25.8801 288.66 26.5801L285.04 36.0201H285.02Z" fill="white"/>
<path d="M299.06 43.2601C297.75 43.2601 296.9 42.98 296.51 42.41C296.12 41.85 296.16 40.9601 296.63 39.7401L303.09 22.86C303.56 21.64 304.21 20.7501 305.04 20.1901C305.86 19.6301 306.93 19.3401 308.24 19.3401H319.74C321.05 19.3401 321.89 19.6201 322.26 20.1901C322.63 20.7601 322.58 21.64 322.11 22.86L315.65 39.7401C315.18 40.9601 314.54 41.85 313.74 42.41C312.94 42.97 311.89 43.2601 310.58 43.2601H299.08H299.06ZM305.49 36.0201C305.22 36.7201 305.16 37.1901 305.3 37.4401C305.45 37.6901 305.8 37.8101 306.37 37.8101H307.38C307.94 37.8101 308.39 37.6901 308.72 37.4401C309.05 37.1901 309.35 36.7201 309.62 36.0201L313.24 26.5801C313.51 25.8801 313.58 25.41 313.44 25.16C313.3 24.91 312.95 24.79 312.39 24.79H311.38C310.82 24.79 310.37 24.91 310.03 25.16C309.69 25.41 309.39 25.8801 309.12 26.5801L305.5 36.0201H305.49Z" fill="white"/>
<path d="M325.85 37.8101H333.9L330.42 43.2601H316.32L325.49 19.3501H332.93L325.86 37.8201L325.85 37.8101Z" fill="white"/>
<path d="M342.86 37.8101H350.91L347.43 43.2601H333.33L342.5 19.3501H349.94L342.87 37.8201L342.86 37.8101Z" fill="white"/>
<path d="M374.96 19.3401L372.32 43.2501H365.01L367.01 27.05L360.41 37.8101H364.47L360.95 43.2601H349.82L364.57 19.35H374.95L374.96 19.3401Z" fill="white"/>
<path d="M382.87 19.3401H398.09C399.4 19.3401 400.24 19.6201 400.61 20.1901C400.98 20.7601 400.93 21.64 400.46 22.86L397.08 31.72C396.63 32.89 396.01 33.77 395.22 34.36C394.43 34.95 393.38 35.2401 392.07 35.2401L392.98 43.2601H385.51L384.33 35.1801L381.22 43.2601H373.78L380.88 24.79H379.42L382.87 19.3401ZM388.32 24.79L386.39 29.8H388.83C389.39 29.8 389.84 29.6801 390.17 29.4301C390.5 29.1801 390.8 28.7101 391.07 28.0101L391.61 26.5901C391.88 25.8901 391.95 25.42 391.81 25.17C391.68 24.92 391.32 24.8 390.76 24.8H388.33L388.32 24.79Z" fill="white"/>
</svg>
