<svg width="353" height="84" viewBox="0 0 353 84" fill="none" xmlns="http://www.w3.org/2000/svg">
<path d="M0.340149 19.68L64.7901 83.66L129.98 20.24L100.99 6.13997L72.8401 12.65H54.4801L35.5601 12.09L33.6601 4.65997L0.340149 19.68Z" fill="white"/>
<path d="M36.6413 3.3915L0.0290527 18.9476L0.615631 20.3281L37.2279 4.77206L36.6413 3.3915Z" fill="#353435"/>
<path d="M16.0501 35.3599L15.0701 34.2199L33.1601 18.5699L34.1501 19.6999L16.0501 35.3599Z" fill="#353435"/>
<path d="M99.9907 5.69929L99.3452 7.05328L129.241 21.3066L129.887 19.9526L99.9907 5.69929Z" fill="#353435"/>
<path d="M115.25 34.6599L97.9501 19.6999L98.9301 18.5699L116.23 33.5299L115.25 34.6599Z" fill="#353435"/>
<path d="M92.3301 0.659973H39.5001V16.49H92.3301V0.659973Z" fill="#59595C"/>
<path d="M92.7001 16.87H39.1201V0.289978H92.7001V16.87ZM39.8701 16.12H91.9501V1.03998H39.8701V16.12Z" fill="#353435"/>
<path d="M28.8201 7.96997C28.8201 7.96997 36.6801 38.69 65.9101 38.69C95.1401 38.69 103.94 7.96997 103.94 7.96997L92.1401 0.659973C92.1401 0.659973 90.4601 27.45 66.3801 27.45C42.3001 27.45 39.5001 0.659973 39.5001 0.659973L28.8201 7.96997Z" fill="#59595C"/>
<path d="M65.9101 39.07C36.7301 39.07 28.5301 8.37 28.4501 8.06L28.3901 7.8L28.6001 7.65L39.8001 0L39.8601 0.62C39.8901 0.88 42.9201 27.08 66.3701 27.08C89.8201 27.08 91.7501 0.9 91.7701 0.64L91.8101 0.02L104.39 7.8L104.31 8.07C104.22 8.38 95.0901 39.07 65.9201 39.07H65.9101ZM29.2501 8.13C30.1001 11.05 38.7201 38.32 65.9201 38.32C93.1201 38.32 102.53 11.15 103.5 8.14L92.4501 1.3C92.0001 5.33 88.4701 27.83 66.3801 27.83C44.2901 27.83 39.8301 5.35 39.2101 1.32L29.2501 8.13Z" fill="#353435"/>
<path d="M167.57 14.13H182.79C184.1 14.13 184.94 14.41 185.31 14.98C185.68 15.54 185.63 16.43 185.16 17.65L181.78 26.51C181.33 27.68 180.71 28.56 179.92 29.15C179.13 29.74 178.08 30.03 176.77 30.03L177.68 38.05H170.2L169.02 29.97L165.91 38.05H158.47L165.57 19.58H164.12L167.57 14.13ZM173.02 19.58L171.09 24.59H173.53C174.09 24.59 174.54 24.47 174.87 24.22C175.2 23.97 175.5 23.5 175.77 22.8L176.31 21.38C176.58 20.68 176.65 20.21 176.51 19.96C176.37 19.71 176.03 19.59 175.46 19.59H173.02V19.58Z" fill="white"/>
<path d="M183.17 38.04C181.86 38.04 181.01 37.76 180.62 37.19C180.22 36.63 180.26 35.74 180.74 34.52L187.2 17.64C187.67 16.42 188.32 15.53 189.14 14.97C189.96 14.41 191.03 14.12 192.34 14.12H203.84C205.15 14.12 205.99 14.4 206.36 14.97C206.73 15.53 206.68 16.42 206.21 17.64L199.75 34.52C199.28 35.74 198.64 36.63 197.84 37.19C197.04 37.75 195.98 38.04 194.68 38.04H183.18H183.17ZM189.6 30.8C189.33 31.5 189.27 31.97 189.41 32.22C189.56 32.47 189.91 32.59 190.48 32.59H191.49C192.05 32.59 192.5 32.47 192.83 32.22C193.16 31.97 193.46 31.5 193.73 30.8L197.35 21.36C197.62 20.66 197.69 20.19 197.55 19.94C197.41 19.69 197.06 19.57 196.5 19.57H195.49C194.93 19.57 194.48 19.69 194.14 19.94C193.8 20.19 193.5 20.66 193.23 21.36L189.61 30.8H189.6Z" fill="white"/>
<path d="M210.45 32.23C210.6 32.48 210.95 32.6 211.52 32.6H212.47C213.03 32.6 213.48 32.48 213.81 32.23C214.14 31.98 214.44 31.51 214.71 30.81L221.1 14.13H228.54L220.73 34.53C220.26 35.75 219.62 36.64 218.82 37.2C218.02 37.76 216.97 38.05 215.66 38.05H204.23C202.92 38.05 202.07 37.77 201.68 37.2C201.28 36.64 201.32 35.75 201.8 34.53L209.61 14.13H217.05L210.66 30.81C210.39 31.51 210.33 31.98 210.47 32.23H210.45Z" fill="white"/>
<path d="M240.4 38.04H235.02L232.25 29.11L228.83 38.04H221.39L230.56 14.13H235.94L238.71 23.06L242.13 14.13H249.57L240.4 38.04Z" fill="white"/>
<path d="M267.76 14.13C269.07 14.13 269.91 14.41 270.28 14.98C270.65 15.54 270.6 16.43 270.13 17.65L263.67 34.53C263.2 35.75 262.56 36.64 261.76 37.2C260.96 37.76 259.9 38.05 258.6 38.05H243.38L250.48 19.58H249.03L252.48 14.13H267.77H267.76ZM255.41 32.6C255.97 32.6 256.42 32.48 256.75 32.23C257.08 31.98 257.38 31.51 257.65 30.81L261.27 21.37C261.54 20.67 261.61 20.2 261.47 19.95C261.33 19.7 260.98 19.58 260.42 19.58H257.92L252.91 32.6H255.41Z" fill="white"/>
<path d="M283.35 38.04H277.97L275.2 29.11L271.78 38.04H264.34L273.51 14.13H278.89L281.66 23.06L285.08 14.13H292.52L283.35 38.04Z" fill="white"/>
<path d="M285.38 38.04L294.55 14.13H311.6L308.08 19.58H299.93L298.44 23.44H306.49L303.01 28.82H296.38L294.93 32.61H304.5L300.98 38.06H285.39L285.38 38.04Z" fill="white"/>
<path d="M314.17 30.8C313.9 31.5 313.84 31.97 313.98 32.22C314.13 32.47 314.48 32.59 315.05 32.59H324.49L321.04 38.04H307.75C306.44 38.04 305.59 37.76 305.2 37.19C304.8 36.63 304.84 35.74 305.32 34.52L311.78 17.64C312.25 16.42 312.9 15.53 313.72 14.97C314.54 14.41 315.61 14.12 316.92 14.12H327.85C329.16 14.12 330 14.4 330.37 14.97C330.74 15.53 330.69 16.42 330.22 17.64L328.39 22.48H320.95L321.39 21.33C321.64 20.63 321.69 20.16 321.56 19.93C321.43 19.7 321.07 19.58 320.51 19.58H320.07C319.51 19.58 319.06 19.7 318.72 19.95C318.38 20.2 318.08 20.67 317.81 21.37L314.19 30.81L314.17 30.8Z" fill="white"/>
<path d="M335.99 38.04L335.38 28.84L331.86 38.04H324.42L333.59 14.13H341.03L337.51 23.33L345.15 14.13H352.59L342.54 26.04L343.42 38.05H335.98L335.99 38.04Z" fill="white"/>
</svg>
