<svg width="420" height="91" viewBox="0 0 420 91" fill="none" xmlns="http://www.w3.org/2000/svg">
<path d="M0.630188 24.34L67.0402 90.28L134.24 24.92L98.0502 8.85999L75.9602 13.8199L55.3002 12.85L46.2202 11.33L34.9602 8.85999L0.630188 24.34Z" fill="white"/>
<path d="M38.0969 7.46599L0.398315 23.5847L1.00377 25.0008L38.7024 8.88202L38.0969 7.46599Z" fill="#353435"/>
<path d="M16.8102 40.5L15.8202 39.3199L40.5402 18.9L41.5302 20.09L16.8102 40.5Z" fill="#353435"/>
<path d="M133.49 26.02L96.6502 8.90002L97.3202 7.51001L134.15 24.63L133.49 26.02Z" fill="#353435"/>
<path d="M119.07 39.8L93.5302 19.8199L94.5102 18.63L120.05 38.6L119.07 39.8Z" fill="#353435"/>
<path d="M47.1102 31.26H85.3402L82.3302 44.1899L66.9902 52.16L51.2902 43.38L47.1102 31.26Z" fill="#59595C"/>
<path d="M93.1402 1.48999H41.7202V13.65H93.1402V1.48999Z" fill="#59595C"/>
<path d="M93.5302 14.04H41.3302V1.09998H93.5302V14.04ZM42.1002 13.27H92.7502V1.88H42.1002V13.27Z" fill="#353435"/>
<path d="M46.6002 40.9L66.9902 52.16L88.0802 41.2" stroke="#353435" stroke-width="0.65" stroke-linejoin="round"/>
<path d="M80.3302 45.23L93.1402 1.48999L97.7102 9.51001L88.0802 41.2" fill="#59595C"/>
<path d="M80.3302 45.23L93.1402 1.48999L97.7102 9.51001L88.0802 41.2" stroke="#353435" stroke-width="0.65" stroke-linejoin="round"/>
<path d="M46.8902 41.0601L37.4602 8.10999L42.0002 1.13L55.1602 45.63L46.8902 41.0601Z" fill="#59595C" stroke="#353435" stroke-width="0.65" stroke-linejoin="round"/>
<path d="M175.49 26.12C174.97 26.12 174.55 26.27 174.24 26.58C173.92 26.88 173.66 27.32 173.46 27.88L173.36 28.15C173.18 28.69 173.09 29.04 173.09 29.2C173.09 29.47 173.19 29.65 173.38 29.74C173.57 29.83 173.86 29.87 174.24 29.87H179.69C181 29.87 181.85 30.15 182.24 30.72C182.63 31.28 182.59 32.17 182.12 33.39L179.18 41.0699C178.71 42.2899 178.06 43.18 177.24 43.74C176.42 44.3 175.35 44.59 174.04 44.59H160.75L161.49 39.14H170.93C171.49 39.14 171.94 39.02 172.27 38.77C172.6 38.52 172.9 38.05 173.17 37.35L173.27 37.11C173.5 36.52 173.59 36.0999 173.54 35.8199C173.49 35.5499 173.28 35.3801 172.9 35.3101H166.95C165.64 35.3101 164.79 35.03 164.4 34.46C164 33.9 164.05 33 164.52 31.79L167.46 24.15C168.25 22.07 169.65 20.91 171.65 20.67H187.01L183.49 26.12H175.51H175.49Z" fill="white"/>
<path d="M196.9 44.59L197.95 36.78L193.01 44.59H184.96L188.71 20.6801H196.08L194.32 31.4399L200.71 20.6801H207.41L205.52 31.4399L211.98 20.6801H219.42L204.88 44.59H196.9Z" fill="white"/>
<path d="M215.57 44.59C214.26 44.59 213.41 44.31 213.02 43.74C212.63 43.18 212.67 42.2899 213.14 41.0699L219.6 24.1899C220.07 22.9699 220.72 22.08 221.54 21.52C222.36 20.96 223.43 20.67 224.74 20.67H236.24C237.55 20.67 238.39 20.95 238.76 21.52C239.13 22.08 239.08 22.9699 238.61 24.1899L232.15 41.0699C231.68 42.2899 231.04 43.18 230.24 43.74C229.44 44.3 228.38 44.59 227.08 44.59H215.58H215.57ZM222 37.35C221.73 38.05 221.67 38.52 221.81 38.77C221.96 39.02 222.31 39.14 222.88 39.14H223.89C224.45 39.14 224.9 39.02 225.23 38.77C225.56 38.52 225.86 38.05 226.13 37.35L229.75 27.91C230.02 27.21 230.09 26.74 229.95 26.49C229.81 26.24 229.46 26.12 228.9 26.12H227.89C227.33 26.12 226.88 26.24 226.54 26.49C226.2 26.74 225.9 27.21 225.63 27.91L222.01 37.35H222Z" fill="white"/>
<path d="M236.61 44.59C235.3 44.59 234.45 44.31 234.06 43.74C233.67 43.18 233.71 42.2899 234.18 41.0699L240.64 24.1899C241.11 22.9699 241.76 22.08 242.59 21.52C243.41 20.96 244.48 20.67 245.79 20.67H257.29C258.6 20.67 259.44 20.95 259.81 21.52C260.18 22.09 260.13 22.9699 259.66 24.1899L253.2 41.0699C252.73 42.2899 252.09 43.18 251.29 43.74C250.49 44.3 249.44 44.59 248.13 44.59H236.63H236.61ZM243.04 37.35C242.77 38.05 242.71 38.52 242.85 38.77C243 39.02 243.35 39.14 243.92 39.14H244.93C245.49 39.14 245.94 39.02 246.27 38.77C246.6 38.52 246.9 38.05 247.17 37.35L250.79 27.91C251.06 27.21 251.13 26.74 250.99 26.49C250.85 26.24 250.5 26.12 249.94 26.12H248.93C248.37 26.12 247.92 26.24 247.58 26.49C247.24 26.74 246.94 27.21 246.67 27.91L243.05 37.35H243.04Z" fill="white"/>
<path d="M269.96 26.12C269.44 26.12 269.02 26.27 268.71 26.58C268.39 26.88 268.14 27.32 267.93 27.88L267.83 28.15C267.65 28.69 267.56 29.04 267.56 29.2C267.56 29.47 267.66 29.65 267.85 29.74C268.04 29.83 268.33 29.87 268.71 29.87H274.16C275.47 29.87 276.32 30.15 276.71 30.72C277.1 31.28 277.07 32.17 276.59 33.39L273.65 41.0699C273.18 42.2899 272.53 43.18 271.71 43.74C270.89 44.3 269.82 44.59 268.51 44.59H255.22L255.96 39.14H265.4C265.96 39.14 266.41 39.02 266.74 38.77C267.07 38.52 267.37 38.05 267.64 37.35L267.74 37.11C267.97 36.52 268.06 36.0999 268.01 35.8199C267.96 35.5399 267.75 35.3801 267.37 35.3101H261.42C260.11 35.3101 259.26 35.03 258.87 34.46C258.48 33.89 258.51 33 258.99 31.79L261.93 24.15C262.72 22.07 264.12 20.91 266.12 20.67H281.48L277.96 26.12H269.98H269.96Z" fill="white"/>
<path d="M286.09 44.59L289.64 35.36H285.51L281.96 44.59H274.52L283.69 20.6801H291.13L287.58 29.98H291.71L295.26 20.6801H302.7L293.53 44.59H286.09Z" fill="white"/>
<path d="M324.08 26.12C323.56 26.12 323.14 26.27 322.83 26.58C322.51 26.88 322.26 27.32 322.05 27.88L321.95 28.15C321.77 28.69 321.68 29.04 321.68 29.2C321.68 29.47 321.78 29.65 321.97 29.74C322.16 29.83 322.45 29.87 322.83 29.87H328.28C329.59 29.87 330.44 30.15 330.83 30.72C331.22 31.28 331.19 32.17 330.71 33.39L327.77 41.0699C327.3 42.2899 326.65 43.18 325.83 43.74C325.01 44.3 323.94 44.59 322.63 44.59H309.34L310.08 39.14H319.52C320.08 39.14 320.53 39.02 320.86 38.77C321.19 38.52 321.49 38.05 321.76 37.35L321.86 37.11C322.09 36.52 322.18 36.0999 322.13 35.8199C322.08 35.5399 321.87 35.3801 321.49 35.3101H315.54C314.23 35.3101 313.38 35.03 312.99 34.46C312.6 33.89 312.63 33 313.11 31.79L316.05 24.15C316.84 22.07 318.24 20.91 320.24 20.67H335.6L332.08 26.12H324.1H324.08Z" fill="white"/>
<path d="M340.21 44.59L343.76 35.36H339.63L336.08 44.59H328.64L337.81 20.6801H345.25L341.7 29.98H345.83L349.38 20.6801H356.82L347.65 44.59H340.21Z" fill="white"/>
<path d="M353.47 44.59C352.16 44.59 351.31 44.31 350.92 43.74C350.53 43.18 350.57 42.2899 351.04 41.0699L357.5 24.1899C357.97 22.9699 358.62 22.08 359.45 21.52C360.27 20.96 361.34 20.67 362.65 20.67H374.15C375.46 20.67 376.3 20.95 376.67 21.52C377.04 22.09 376.99 22.9699 376.52 24.1899L370.06 41.0699C369.59 42.2899 368.95 43.18 368.15 43.74C367.35 44.3 366.3 44.59 364.99 44.59H353.49H353.47ZM359.9 37.35C359.63 38.05 359.57 38.52 359.71 38.77C359.86 39.02 360.21 39.14 360.78 39.14H361.79C362.35 39.14 362.8 39.02 363.13 38.77C363.46 38.52 363.76 38.05 364.03 37.35L367.65 27.91C367.92 27.21 367.99 26.74 367.85 26.49C367.71 26.24 367.36 26.12 366.8 26.12H365.79C365.23 26.12 364.78 26.24 364.44 26.49C364.1 26.74 363.8 27.21 363.53 27.91L359.91 37.35H359.9Z" fill="white"/>
<path d="M380.77 20.6801H395.99C397.3 20.6801 398.14 20.96 398.51 21.53C398.88 22.1 398.83 22.98 398.36 24.2L394.98 33.0601C394.53 34.2301 393.91 35.11 393.12 35.7C392.33 36.29 391.28 36.58 389.97 36.58L390.88 44.6H383.41L382.23 36.52L379.12 44.6H371.68L378.78 26.13H377.32L380.77 20.6801ZM386.22 26.13L384.29 31.14H386.73C387.29 31.14 387.74 31.02 388.07 30.77C388.4 30.52 388.7 30.05 388.97 29.35L389.51 27.9301C389.78 27.2301 389.85 26.76 389.71 26.51C389.58 26.26 389.22 26.14 388.66 26.14H386.23L386.22 26.13Z" fill="white"/>
<path d="M419.77 20.6801L416.25 26.13H412.16L405.06 44.6H397.62L404.72 26.13H399.17L402.72 20.6801H419.77Z" fill="white"/>
</svg>
