<svg width="354" height="89" viewBox="0 0 354 89" fill="none" xmlns="http://www.w3.org/2000/svg">
<path d="M0.360168 22.67L66.7702 88.6099L133.96 23.2499L102.04 8.22993L75.6802 12.1499L55.0202 11.1799L45.9402 9.65994L34.6902 7.18994L0.360168 22.67Z" fill="white"/>
<path d="M0.660171 23.38L0.0501709 21.96L37.7502 5.83997L38.3502 7.25996L0.660171 23.38Z" fill="#353435"/>
<path d="M38.1309 18.9039L15.5129 37.6551L16.4958 38.8407L39.1138 20.0894L38.1309 18.9039Z" fill="#353435"/>
<path d="M103.056 8.28214L102.393 9.67212L133.207 24.3698L133.87 22.9798L103.056 8.28214Z" fill="#353435"/>
<path d="M97.6922 18.8439L96.717 20.0358L118.806 38.1086L119.781 36.9167L97.6922 18.8439Z" fill="#353435"/>
<path d="M43.0002 0.630005C43.0002 0.630005 49.7102 4.2 67.6802 4.2C85.6502 4.2 93.8802 1.37 93.8802 1.37L92.4102 12.5C92.4102 12.5 81.0202 15.39 68.4402 15.39C55.8602 15.39 42.9902 12.88 42.9902 12.88V0.619995L43.0002 0.630005Z" fill="#59595C"/>
<path d="M68.4502 15.79C55.9702 15.79 43.0602 13.3 42.9302 13.28L42.6202 13.22V0L43.1902 0.300003C43.2602 0.330003 50.0602 3.82001 67.6902 3.82001C85.3202 3.82001 93.6902 1.04 93.7702 1.02L94.3602 0.820007L92.7702 12.82L92.5202 12.88C92.4102 12.91 80.9402 15.79 68.4602 15.79H68.4502ZM43.3902 12.58C45.4302 12.96 57.1202 15.02 68.4502 15.02C79.7802 15.02 90.3202 12.62 92.0702 12.2L93.4302 1.92C91.2402 2.55 82.8802 4.59 67.6902 4.59C52.5002 4.59 45.3602 2.08001 43.4002 1.24001V12.57L43.3902 12.58Z" fill="#353435"/>
<path d="M43.9501 0.729985C43.9501 0.729985 41.5001 3.29999 46.9101 11.16C52.3201 19.01 67.3801 34.33 67.3801 34.33L89.1301 11.16C89.1301 11.16 96.8502 -0.170015 91.9602 0.729985C91.9602 0.729985 104.06 4.33 102.65 8.71C101.23 13.09 91.1901 32.91 67.8901 49.25C67.8901 49.25 39.3201 26.08 33.0101 9.6C33.0101 9.6 31.0801 8.44 35.5801 4.07C40.0901 -0.310004 40.7301 0.46999 43.9501 0.71999V0.729985Z" fill="#59595C"/>
<path d="M67.8801 49.74L67.6601 49.56C67.3701 49.33 39.0401 26.23 32.7001 9.85C32.5401 9.71 32.3001 9.41999 32.2401 8.89999C32.0901 7.64999 33.1301 5.93 35.3301 3.8C39.4901 -0.240001 40.5201 -0.0299986 42.9001 0.240001C43.2301 0.280001 43.6001 0.320002 43.9901 0.350002L44.8001 0.41L44.2401 0.990001C44.2401 0.990001 42.1401 3.51999 47.2401 10.93C52.1601 18.07 65.2901 31.62 67.3801 33.76L88.8601 10.88C90.7601 8.09 93.5701 3.13 93.1701 1.52C92.3801 1.24 91.8601 1.08999 91.8601 1.08999L90.3201 0.630001L91.9001 0.339992C93.0001 0.139992 93.5101 0.52 93.7501 0.91C97.7801 2.36 104.18 5.26 103.03 8.82C101.59 13.26 91.4501 33.2 68.1301 49.56L67.8901 49.73L67.8801 49.74ZM41.4301 0.889995C40.0701 0.889995 38.8901 1.41 35.8601 4.35C33.2601 6.88 32.9501 8.2 33.0001 8.77C33.0301 9.14 33.2201 9.27999 33.2301 9.27999L33.3301 9.35L33.3801 9.47C39.2801 24.89 65.2201 46.55 67.9201 48.77C90.9001 32.56 100.88 12.96 102.29 8.58999C103.24 5.64999 96.8101 2.88 93.9701 1.82C94.0001 4.63 89.9701 10.63 89.4601 11.37L67.3901 34.88L67.1101 34.59C66.9601 34.44 51.9601 19.16 46.6001 11.37C42.4201 5.29999 42.8301 2.23 43.3201 1.05C43.1401 1.03 42.9701 1.01 42.8101 0.990001C42.3001 0.930001 41.8501 0.880001 41.4301 0.880001V0.889995Z" fill="#353435"/>
<path d="M78.3002 43.23H58.5102V50.6H78.3002V43.23Z" fill="white"/>
<path d="M160.46 42.83L164.21 18.92H171.52L168.61 34.89L177.98 18.92H185.35L170.77 42.83H160.45H160.46Z" fill="white"/>
<path d="M196.72 42.83H191.34L188.57 33.9L185.15 42.83H177.71L186.88 18.92H192.26L195.03 27.85L198.45 18.92H205.89L196.72 42.83Z" fill="white"/>
<path d="M198.75 42.83L207.92 18.92H224.97L221.45 24.37H213.3L211.81 28.23H219.86L216.38 33.61H209.75L208.3 37.4H217.87L214.35 42.85H198.76L198.75 42.83Z" fill="white"/>
<path d="M227.54 35.59C227.27 36.29 227.21 36.76 227.35 37.01C227.5 37.26 227.85 37.38 228.42 37.38H237.86L234.41 42.83H221.12C219.81 42.83 218.96 42.55 218.57 41.98C218.17 41.42 218.21 40.53 218.69 39.31L225.15 22.43C225.62 21.21 226.27 20.32 227.09 19.76C227.91 19.2 228.98 18.91 230.29 18.91H241.22C242.53 18.91 243.37 19.19 243.74 19.76C244.11 20.32 244.06 21.21 243.59 22.43L241.76 27.27H234.32L234.76 26.12C235.01 25.42 235.06 24.95 234.93 24.72C234.8 24.49 234.44 24.37 233.88 24.37H233.44C232.88 24.37 232.43 24.49 232.09 24.74C231.75 24.99 231.45 25.46 231.18 26.16L227.56 35.6L227.54 35.59Z" fill="white"/>
<path d="M249.35 42.83L248.74 33.63L245.22 42.83H237.78L246.95 18.92H254.39L250.87 28.12L258.51 18.92H265.95L255.9 30.83L256.78 42.84H249.34L249.35 42.83Z" fill="white"/>
<path d="M270.73 42.83L279.9 18.92H296.95L293.43 24.37H285.28L283.79 28.23H291.84L288.36 33.61H281.73L278.18 42.84H270.74L270.73 42.83Z" fill="white"/>
<path d="M298.84 37.38H306.89L303.41 42.83H289.31L298.48 18.92H305.92L298.85 37.39L298.84 37.38Z" fill="white"/>
<path d="M330.94 18.91L328.3 42.82H320.99L322.99 26.62L316.39 37.38H320.45L316.93 42.83H305.8L320.55 18.92H330.93L330.94 18.91Z" fill="white"/>
<path d="M353.3 18.91L349.78 24.36H345.69L338.59 42.83H331.15L338.25 24.36H332.7L336.25 18.91H353.3Z" fill="white"/>
</svg>
