<svg width="383" height="90" viewBox="0 0 383 90" fill="none" xmlns="http://www.w3.org/2000/svg">
<path d="M0.540161 23.46L66.9502 89.4L134.14 24.04L102.22 9.01999L75.8602 12.94L55.2101 11.97L46.1202 10.45L34.8702 7.97998L0.540161 23.46Z" fill="white"/>
<path d="M0.840179 24.18L0.230164 22.75L37.9302 6.63L38.5302 8.05L0.840179 24.18Z" fill="#353435"/>
<path d="M38.3496 19.7159L15.7316 38.467L16.7144 39.6526L39.3325 20.9014L38.3496 19.7159Z" fill="#353435"/>
<path d="M103.254 9.07366L102.591 10.4636L133.406 25.1613L134.069 23.7713L103.254 9.07366Z" fill="#353435"/>
<path d="M97.8479 19.6223L96.8727 20.8142L118.961 38.887L119.936 37.6951L97.8479 19.6223Z" fill="#353435"/>
<path d="M43.1802 1.42998C43.1802 1.42998 49.8902 4.99998 67.8602 4.99998C85.8302 4.99998 94.0602 2.16998 94.0602 2.16998L92.5901 13.3C92.5901 13.3 81.2002 16.19 68.6202 16.19C56.0402 16.19 43.1702 13.68 43.1702 13.68V1.41998L43.1802 1.42998Z" fill="#59595C"/>
<path d="M68.6302 16.58C56.1502 16.58 43.2402 14.09 43.1102 14.07L42.8002 14.01V0.789978L43.3702 1.08998C43.4402 1.11998 50.2402 4.60999 67.8702 4.60999C85.5002 4.60999 93.8702 1.82998 93.9502 1.80998L94.5402 1.60999L92.9502 13.61L92.7002 13.67C92.5902 13.7 81.1202 16.58 68.6402 16.58H68.6302ZM43.5702 13.37C45.6102 13.75 57.3002 15.81 68.6302 15.81C79.9602 15.81 90.5002 13.41 92.2502 12.99L93.6102 2.70999C91.4202 3.33999 83.0602 5.37999 67.8702 5.37999C52.6802 5.37999 45.5402 2.86998 43.5802 2.02998V13.36L43.5702 13.37Z" fill="#353435"/>
<path d="M44.1402 1.51998C44.1402 1.51998 41.6901 4.08997 47.1001 11.95C52.5101 19.8 67.5702 35.12 67.5702 35.12L89.3202 11.95C89.3202 11.95 97.0401 0.619978 92.1501 1.51998C92.1501 1.51998 104.25 5.11997 102.84 9.49997C101.42 13.88 91.3802 33.7 68.0802 50.04C68.0802 50.04 39.5102 26.87 33.2002 10.39C33.2002 10.39 31.2701 9.22997 35.7701 4.85997C40.2801 0.479975 40.9202 1.25997 44.1402 1.50997V1.51998Z" fill="#59595C"/>
<path d="M68.0602 50.53L67.8402 50.35C67.5502 50.12 39.2202 27.02 32.8802 10.64C32.7202 10.5 32.4802 10.21 32.4202 9.68998C32.2702 8.43998 33.3102 6.71998 35.5102 4.58998C39.6702 0.549977 40.7002 0.759979 43.0802 1.02998C43.4102 1.06998 43.7802 1.10998 44.1702 1.13998L44.9802 1.19998L44.4202 1.77998C44.4202 1.77998 42.3202 4.30998 47.4202 11.72C52.3402 18.86 65.4702 32.41 67.5602 34.55L89.0402 11.67C90.9402 8.87998 93.7502 3.91998 93.3502 2.30998C92.5602 2.02998 92.0402 1.87999 92.0402 1.87999L90.5002 1.41998L92.0802 1.12999C93.1802 0.929986 93.6902 1.30998 93.9302 1.69998C97.9602 3.14998 104.36 6.04998 103.21 9.60998C101.77 14.05 91.6302 33.99 68.3102 50.35L68.0702 50.52L68.0602 50.53ZM41.6102 1.67997C40.2502 1.67997 39.0702 2.19998 36.0402 5.13998C33.4402 7.66998 33.1302 8.98998 33.1802 9.55998C33.2102 9.92998 33.4002 10.07 33.4102 10.07L33.5102 10.14L33.5602 10.26C39.4602 25.68 65.4002 47.34 68.1002 49.56C91.0802 33.35 101.06 13.75 102.47 9.37999C103.42 6.43999 96.9902 3.66998 94.1502 2.60998C94.1802 5.41998 90.1502 11.42 89.6402 12.16L67.5702 35.67L67.2902 35.38C67.1402 35.23 52.1402 19.95 46.7802 12.16C42.6002 6.08998 43.0102 3.01998 43.5002 1.83998C43.3202 1.81998 43.1502 1.79998 42.9902 1.77998C42.4802 1.71998 42.0302 1.66998 41.6102 1.66998V1.67997Z" fill="#353435"/>
<path d="M68.1402 34.23L59.2902 42.03" stroke="white" stroke-width="1.31" stroke-miterlimit="10"/>
<path d="M160.65 41.58L164.4 17.67H171.71L168.8 33.64L178.17 17.67H185.54L170.96 41.58H160.64H160.65Z" fill="white"/>
<path d="M196.91 41.58H191.53L188.76 32.65L185.34 41.58H177.9L187.07 17.67H192.45L195.22 26.6L198.64 17.67H206.08L196.91 41.58Z" fill="white"/>
<path d="M198.94 41.58L208.11 17.67H225.16L221.64 23.12H213.49L212 26.98H220.05L216.57 32.36H209.94L208.49 36.15H218.06L214.54 41.6H198.95L198.94 41.58Z" fill="white"/>
<path d="M227.72 34.34C227.45 35.04 227.39 35.51 227.53 35.76C227.68 36.01 228.03 36.13 228.6 36.13H238.04L234.59 41.58H221.3C219.99 41.58 219.14 41.3 218.75 40.73C218.36 40.17 218.4 39.28 218.87 38.06L225.33 21.18C225.8 19.96 226.45 19.07 227.28 18.51C228.1 17.95 229.17 17.66 230.48 17.66H241.4C242.71 17.66 243.55 17.94 243.92 18.51C244.29 19.07 244.24 19.96 243.77 21.18L241.94 26.02H234.5L234.94 24.87C235.19 24.17 235.24 23.7 235.11 23.47C234.98 23.23 234.62 23.12 234.06 23.12H233.62C233.06 23.12 232.61 23.24 232.27 23.49C231.93 23.74 231.63 24.21 231.36 24.91L227.74 34.35L227.72 34.34Z" fill="white"/>
<path d="M249.54 41.58L248.93 32.38L245.41 41.58H237.97L247.14 17.67H254.58L251.06 26.87L258.7 17.67H266.14L256.09 29.58L256.97 41.59H249.53L249.54 41.58Z" fill="white"/>
<path d="M281.13 34.34C280.86 35.04 280.8 35.51 280.94 35.76C281.09 36.01 281.44 36.13 282.01 36.13H291.45L288 41.58H274.71C273.4 41.58 272.55 41.3 272.16 40.73C271.77 40.17 271.81 39.28 272.28 38.06L278.74 21.18C279.21 19.96 279.86 19.07 280.69 18.51C281.51 17.95 282.58 17.66 283.89 17.66H294.81C296.12 17.66 296.96 17.94 297.33 18.51C297.7 19.07 297.65 19.96 297.18 21.18L295.35 26.02H287.91L288.35 24.87C288.6 24.17 288.65 23.7 288.52 23.47C288.39 23.23 288.03 23.12 287.47 23.12H287.03C286.47 23.12 286.02 23.24 285.68 23.49C285.34 23.74 285.04 24.21 284.77 24.91L281.15 34.35L281.13 34.34Z" fill="white"/>
<path d="M301.42 17.67H316.64C317.95 17.67 318.79 17.95 319.16 18.52C319.53 19.08 319.48 19.97 319.01 21.19L315.63 30.05C315.18 31.22 314.56 32.1 313.77 32.69C312.98 33.28 311.93 33.57 310.62 33.57L311.53 41.59H304.06L302.88 33.51L299.77 41.59H292.33L299.43 23.12H297.97L301.42 17.67ZM306.87 23.12L304.94 28.13H307.38C307.94 28.13 308.39 28.01 308.72 27.76C309.05 27.51 309.35 27.04 309.62 26.34L310.16 24.92C310.43 24.22 310.5 23.75 310.36 23.5C310.23 23.25 309.87 23.13 309.31 23.13H306.88L306.87 23.12Z" fill="white"/>
<path d="M317.02 41.58C315.71 41.58 314.86 41.3 314.47 40.73C314.08 40.17 314.12 39.28 314.59 38.06L321.05 21.18C321.52 19.96 322.17 19.07 323 18.51C323.82 17.95 324.89 17.66 326.2 17.66H337.7C339.01 17.66 339.85 17.94 340.22 18.51C340.59 19.07 340.54 19.96 340.07 21.18L333.61 38.06C333.14 39.28 332.5 40.17 331.7 40.73C330.9 41.29 329.85 41.58 328.54 41.58H317.04H317.02ZM323.45 34.34C323.18 35.04 323.12 35.51 323.26 35.76C323.41 36.01 323.76 36.13 324.33 36.13H325.34C325.9 36.13 326.35 36.01 326.68 35.76C327.01 35.51 327.31 35.04 327.58 34.34L331.2 24.9C331.47 24.2 331.54 23.73 331.4 23.48C331.26 23.23 330.91 23.11 330.35 23.11H329.34C328.78 23.11 328.33 23.23 327.99 23.48C327.65 23.73 327.35 24.2 327.08 24.9L323.46 34.34H323.45Z" fill="white"/>
<path d="M350.37 23.11C349.85 23.11 349.43 23.26 349.12 23.57C348.8 23.87 348.55 24.31 348.34 24.87L348.24 25.14C348.06 25.68 347.97 26.03 347.97 26.19C347.97 26.46 348.07 26.64 348.26 26.73C348.45 26.82 348.74 26.87 349.12 26.87H354.57C355.88 26.87 356.73 27.15 357.12 27.72C357.51 28.28 357.48 29.17 357 30.39L354.06 38.07C353.59 39.29 352.94 40.18 352.12 40.74C351.3 41.3 350.23 41.59 348.92 41.59H335.63L336.37 36.14H345.81C346.37 36.14 346.82 36.02 347.15 35.77C347.48 35.52 347.78 35.05 348.05 34.35L348.15 34.11C348.38 33.52 348.47 33.09 348.42 32.82C348.37 32.55 348.16 32.38 347.78 32.31H341.83C340.52 32.31 339.67 32.03 339.28 31.46C338.89 30.9 338.92 30.01 339.4 28.79L342.34 21.15C343.13 19.08 344.53 17.91 346.53 17.67H361.89L358.37 23.12H350.39L350.37 23.11Z" fill="white"/>
<path d="M371.04 23.11C370.52 23.11 370.1 23.26 369.79 23.57C369.47 23.87 369.22 24.31 369.01 24.87L368.91 25.14C368.73 25.68 368.64 26.03 368.64 26.19C368.64 26.46 368.74 26.64 368.93 26.73C369.12 26.82 369.41 26.87 369.79 26.87H375.24C376.55 26.87 377.4 27.15 377.79 27.72C378.18 28.28 378.15 29.17 377.67 30.39L374.73 38.07C374.26 39.29 373.61 40.18 372.79 40.74C371.97 41.3 370.9 41.59 369.59 41.59H356.3L357.04 36.14H366.48C367.04 36.14 367.49 36.02 367.82 35.77C368.15 35.52 368.45 35.05 368.72 34.35L368.82 34.11C369.05 33.52 369.14 33.09 369.09 32.82C369.04 32.55 368.83 32.38 368.45 32.31H362.5C361.19 32.31 360.34 32.03 359.95 31.46C359.56 30.9 359.59 30.01 360.07 28.79L363.01 21.15C363.8 19.08 365.2 17.91 367.2 17.67H382.56L379.04 23.12H371.06L371.04 23.11Z" fill="white"/>
</svg>
