<svg width="263" height="89" viewBox="0 0 263 89" fill="none" xmlns="http://www.w3.org/2000/svg">
<path d="M0.540161 22.68L66.9502 88.62L134.14 23.26L102.22 8.22995L75.8602 12.16L55.2101 11.19L46.1202 9.66995L34.8702 7.19995L0.540161 22.68Z" fill="white"/>
<path d="M0.840179 23.39L0.230164 21.97L37.9302 5.84998L38.5302 7.26998L0.840179 23.39Z" fill="#353435"/>
<path d="M38.3664 18.9225L15.7484 37.6737L16.7313 38.8593L39.3493 20.1081L38.3664 18.9225Z" fill="#353435"/>
<path d="M103.26 8.28521L102.597 9.67517L133.411 24.3728L134.074 22.9829L103.26 8.28521Z" fill="#353435"/>
<path d="M97.8361 18.8493L96.8608 20.0413L118.949 38.1141L119.925 36.9222L97.8361 18.8493Z" fill="#353435"/>
<path d="M43.1802 0.640015C43.1802 0.640015 49.8902 4.21001 67.8602 4.21001C85.8302 4.21001 94.0602 1.38001 94.0602 1.38001L92.5901 12.51C92.5901 12.51 81.2002 15.4 68.6202 15.4C56.0402 15.4 43.1702 12.89 43.1702 12.89V0.640015H43.1802Z" fill="#59595C"/>
<path d="M68.6302 15.8C56.1502 15.8 43.2402 13.31 43.1102 13.29L42.8002 13.23V0L43.3702 0.3C43.4402 0.33 50.2402 3.82 67.8702 3.82C85.5002 3.82 93.8702 1.04 93.9502 1.02L94.5402 0.82L92.9502 12.82L92.7002 12.88C92.5902 12.91 81.1202 15.79 68.6402 15.79L68.6302 15.8ZM43.5702 12.59C45.6102 12.97 57.3002 15.03 68.6302 15.03C79.9602 15.03 90.5002 12.63 92.2502 12.21L93.6102 1.93C91.4202 2.56 83.0602 4.6 67.8702 4.6C52.6802 4.6 45.5402 2.09 43.5802 1.25V12.58L43.5702 12.59Z" fill="#353435"/>
<path d="M44.1402 0.740002C44.1402 0.740002 41.6901 3.31 47.1001 11.17C52.5101 19.02 67.5702 34.34 67.5702 34.34L89.3202 11.17C89.3202 11.17 97.0401 -0.159998 92.1501 0.740002C92.1501 0.740002 104.25 4.34 102.84 8.72C101.42 13.1 91.3802 32.92 68.0802 49.26C68.0802 49.26 39.5102 26.09 33.2002 9.61C33.2002 9.61 31.2701 8.45 35.7701 4.08C40.2801 -0.299999 40.9202 0.480002 44.1402 0.730002V0.740002Z" fill="#59595C"/>
<path d="M68.0602 49.75L67.8402 49.57C67.5502 49.34 39.2202 26.24 32.8802 9.86001C32.7202 9.72001 32.4802 9.43001 32.4202 8.91001C32.2702 7.66001 33.3102 5.94001 35.5102 3.81001C39.6702 -0.229989 40.7002 -0.0199892 43.0802 0.250011C43.4102 0.290011 43.7802 0.330011 44.1702 0.360011L44.9802 0.420011L44.4202 1.00001C44.4202 1.00001 42.3202 3.53001 47.4202 10.94C52.3402 18.08 65.4702 31.63 67.5602 33.77L89.0402 10.89C90.9402 8.10001 93.7502 3.14001 93.3502 1.53001C92.5602 1.25001 92.0402 1.10001 92.0402 1.10001L90.5002 0.640011L92.0802 0.350011C93.1802 0.150011 93.6902 0.530011 93.9302 0.920011C97.9602 2.37001 104.36 5.27001 103.21 8.83001C101.77 13.27 91.6302 33.21 68.3102 49.57L68.0702 49.74L68.0602 49.75ZM41.6102 0.900011C40.2502 0.900011 39.0702 1.42001 36.0402 4.36001C33.4402 6.89001 33.1302 8.21001 33.1802 8.78001C33.2102 9.15001 33.4002 9.29001 33.4102 9.29001L33.5102 9.36001L33.5602 9.48001C39.4602 24.9 65.4002 46.56 68.1002 48.78C91.0802 32.57 101.06 12.97 102.47 8.60001C103.42 5.66001 96.9902 2.89001 94.1502 1.83001C94.1802 4.64001 90.1502 10.64 89.6402 11.38L67.5702 34.89L67.2902 34.6C67.1402 34.45 52.1402 19.17 46.7802 11.38C42.6002 5.31001 43.0102 2.24001 43.5002 1.06001C43.3202 1.04001 43.1502 1.02001 42.9902 1.00001C42.4802 0.940011 42.0302 0.890011 41.6102 0.890011V0.900011Z" fill="#353435"/>
<path d="M67.8502 33.44L67.8902 49.93" stroke="white" stroke-width="1.31" stroke-miterlimit="10"/>
<path d="M156.65 42.74L160.4 18.83H167.71L164.8 34.8L174.17 18.83H181.54L166.96 42.74H156.64H156.65Z" fill="white"/>
<path d="M192.91 42.74H187.53L184.76 33.81L181.34 42.74H173.9L183.07 18.83H188.45L191.22 27.76L194.64 18.83H202.08L192.91 42.74Z" fill="white"/>
<path d="M194.94 42.74L204.11 18.83H221.16L217.64 24.28H209.49L208 28.14H216.05L212.57 33.52H205.94L204.49 37.31H214.06L210.54 42.76H194.95L194.94 42.74Z" fill="white"/>
<path d="M223.72 35.5C223.45 36.2 223.39 36.67 223.53 36.92C223.68 37.17 224.03 37.29 224.6 37.29H234.04L230.59 42.74H217.3C215.99 42.74 215.14 42.46 214.75 41.89C214.36 41.33 214.4 40.44 214.87 39.22L221.33 22.34C221.8 21.12 222.45 20.23 223.28 19.67C224.1 19.11 225.17 18.82 226.48 18.82H237.4C238.71 18.82 239.55 19.1 239.92 19.67C240.29 20.23 240.24 21.12 239.77 22.34L237.94 27.18H230.5L230.94 26.03C231.19 25.33 231.24 24.86 231.11 24.63C230.98 24.39 230.62 24.28 230.06 24.28H229.62C229.06 24.28 228.61 24.4 228.27 24.65C227.93 24.9 227.63 25.37 227.36 26.07L223.74 35.51L223.72 35.5Z" fill="white"/>
<path d="M245.54 42.74L244.93 33.54L241.41 42.74H233.97L243.14 18.83H250.58L247.06 28.03L254.7 18.83H262.14L252.09 30.74L252.97 42.75H245.53L245.54 42.74Z" fill="white"/>
</svg>
