<svg width="393" height="92" viewBox="0 0 393 92" fill="none" xmlns="http://www.w3.org/2000/svg">
<path d="M0.360168 25.5299L66.7702 91.4699L133.96 26.1099L102.04 11.0799L75.6802 15.0099L55.0202 14.0399L45.9402 12.5199L34.6902 10.0499L0.360168 25.5299Z" fill="white"/>
<path d="M0.660171 26.2399L0.0501709 24.8199L37.7502 8.69995L38.3502 10.1199L0.660171 26.2399Z" fill="#353435"/>
<path d="M16.5302 41.7L15.5502 40.5099L42.7102 17.5599L43.7002 18.7399L16.5302 41.7Z" fill="#353435"/>
<path d="M133.21 27.2099L100.99 11.5999L101.65 10.2L133.88 25.8199L133.21 27.2099Z" fill="#353435"/>
<path d="M118.79 40.99L91.5802 18.54L92.5602 17.35L119.77 39.7899L118.79 40.99Z" fill="#353435"/>
<path d="M41.4002 0.779968C41.4002 0.779968 48.3402 4.66998 66.9302 4.66998C85.5202 4.66998 94.0402 1.58997 94.0402 1.58997L92.5202 13.73C92.5202 13.73 80.7402 16.88 67.7202 16.88C54.7002 16.88 41.3902 14.15 41.3902 14.15V0.779968H41.4002Z" fill="#59595C"/>
<path d="M67.7302 17.3C54.8202 17.3 41.4602 14.58 41.3302 14.56L41.0102 14.49V0.0799561L41.6002 0.409973C41.6702 0.449973 48.7002 4.24997 66.9402 4.24997C85.1802 4.24997 93.8402 1.21997 93.9202 1.18997L94.5302 0.969971L92.8902 14.06L92.6302 14.13C92.5102 14.16 80.6502 17.3 67.7402 17.3H67.7302ZM41.8102 13.8C43.9202 14.21 56.0102 16.46 67.7302 16.46C79.4502 16.46 90.3602 13.84 92.1702 13.38L93.5702 2.17996C91.3102 2.85996 82.6602 5.08997 66.9402 5.08997C51.2202 5.08997 43.8302 2.34997 41.8102 1.43997V13.8Z" fill="#353435"/>
<path d="M54.0702 49.63L33.2202 10.06L41.3402 0.839966L66.6502 50.06L54.0702 49.63Z" fill="#59595C" stroke="#353435" stroke-width="0.65" stroke-linejoin="round"/>
<path d="M80.0902 49.63L101.65 10.06L93.2502 0.839966L67.0802 50.06L80.0902 49.63Z" fill="#59595C" stroke="#353435" stroke-width="0.65" stroke-linejoin="round"/>
<path d="M160.46 39.92L164.21 16.01H171.52L168.61 31.98L177.98 16.01H185.35L170.77 39.92H160.45H160.46Z" fill="white"/>
<path d="M196.72 39.92H191.34L188.57 30.99L185.15 39.92H177.71L186.88 16.01H192.26L195.03 24.94L198.45 16.01H205.89L196.72 39.92Z" fill="white"/>
<path d="M198.75 39.92L207.92 16.01H224.97L221.45 21.46H213.3L211.81 25.32H219.86L216.38 30.7H209.75L208.3 34.49H217.87L214.35 39.94H198.76L198.75 39.92Z" fill="white"/>
<path d="M227.54 32.68C227.27 33.38 227.21 33.85 227.35 34.1C227.5 34.35 227.85 34.47 228.42 34.47H237.86L234.41 39.92H221.12C219.81 39.92 218.96 39.64 218.57 39.07C218.17 38.51 218.21 37.62 218.69 36.4L225.15 19.52C225.62 18.3 226.27 17.41 227.09 16.85C227.91 16.29 228.98 16 230.29 16H241.22C242.53 16 243.37 16.28 243.74 16.85C244.11 17.41 244.06 18.3 243.59 19.52L241.76 24.36H234.32L234.76 23.21C235.01 22.51 235.06 22.04 234.93 21.81C234.8 21.58 234.44 21.46 233.88 21.46H233.44C232.88 21.46 232.43 21.58 232.09 21.83C231.75 22.08 231.45 22.55 231.18 23.25L227.56 32.69L227.54 32.68Z" fill="white"/>
<path d="M249.35 39.92L248.74 30.72L245.22 39.92H237.78L246.95 16.01H254.39L250.87 25.21L258.51 16.01H265.95L255.9 27.92L256.78 39.93H249.34L249.35 39.92Z" fill="white"/>
<path d="M289.74 39.92H284.36L281.59 30.99L278.17 39.92H270.73L279.9 16.01H285.28L288.05 24.94L291.47 16.01H298.91L289.74 39.92Z" fill="white"/>
<path d="M295.56 39.92C294.25 39.92 293.4 39.64 293.01 39.07C292.61 38.51 292.65 37.62 293.13 36.4L299.59 19.52C300.06 18.3 300.71 17.41 301.53 16.85C302.35 16.29 303.42 16 304.73 16H316.23C317.54 16 318.38 16.28 318.75 16.85C319.12 17.41 319.07 18.3 318.6 19.52L312.14 36.4C311.67 37.62 311.03 38.51 310.23 39.07C309.43 39.63 308.37 39.92 307.07 39.92H295.57H295.56ZM301.99 32.68C301.72 33.38 301.66 33.85 301.8 34.1C301.95 34.35 302.3 34.47 302.87 34.47H303.88C304.44 34.47 304.89 34.35 305.22 34.1C305.55 33.85 305.85 33.38 306.12 32.68L309.74 23.24C310.01 22.54 310.08 22.07 309.94 21.82C309.8 21.57 309.45 21.45 308.89 21.45H307.88C307.32 21.45 306.87 21.57 306.53 21.82C306.19 22.07 305.89 22.54 305.62 23.24L302 32.68H301.99Z" fill="white"/>
<path d="M325.22 39.92L334.39 16.01H351.44L347.92 21.46H339.77L338.28 25.32H346.33L342.85 30.7H336.22L334.77 34.49H344.34L340.82 39.94H325.23L325.22 39.92Z" fill="white"/>
<path d="M362.8 39.92H357.42L354.65 30.99L351.23 39.92H343.79L352.96 16.01H358.34L361.11 24.94L364.53 16.01H371.97L362.8 39.92Z" fill="white"/>
<path d="M390.17 16C391.48 16 392.32 16.28 392.69 16.85C393.06 17.41 393.01 18.3 392.54 19.52L386.08 36.4C385.61 37.62 384.97 38.51 384.17 39.07C383.37 39.63 382.31 39.92 381.01 39.92H365.79L372.89 21.45H371.44L374.89 16H390.18H390.17ZM377.82 34.47C378.38 34.47 378.83 34.35 379.16 34.1C379.49 33.85 379.79 33.38 380.06 32.68L383.68 23.24C383.95 22.54 384.02 22.07 383.88 21.82C383.74 21.57 383.39 21.45 382.83 21.45H380.33L375.32 34.47H377.82Z" fill="white"/>
</svg>
